{"glyphs":{"0":{"ha":1127,"x_min":93,"x_max":1034,"o":"m 93 472 q 126 673 93 581 q 220 833 159 766 q 570 974 351 974 q 908 838 781 974 q 1034 490 1034 705 q 907 127 1034 264 q 557 -14 776 -14 q 218 122 347 -14 q 93 472 93 254 m 226 489 q 249 336 226 408 q 315 212 271 265 q 570 99 410 99 q 815 205 726 99 q 901 470 901 307 q 812 748 901 641 q 557 861 718 861 q 312 755 402 861 q 226 489 226 655 z "},"1":{"ha":578,"x_min":37,"x_max":454,"o":"m 328 839 l 74 695 l 37 804 l 328 960 l 454 960 l 454 0 l 328 0 l 328 839 z "},"2":{"ha":847,"x_min":100,"x_max":761,"o":"m 100 114 l 355 334 q 603 680 603 550 q 552 817 603 774 q 397 860 502 860 q 191 812 311 860 q 144 792 161 801 l 110 900 q 338 967 201 947 q 435 974 381 974 q 547 954 488 974 q 648 898 606 935 q 736 688 736 821 q 479 289 736 505 l 277 119 l 761 119 l 761 0 l 100 0 l 100 114 z "},"3":{"ha":861,"x_min":76,"x_max":768,"o":"m 227 552 q 359 548 311 548 q 451 557 407 548 q 529 585 495 566 q 604 716 604 629 q 543 826 604 788 q 404 860 488 860 q 204 822 309 860 q 151 799 174 810 l 117 907 q 347 968 206 951 q 436 974 388 974 q 542 958 485 974 q 642 910 598 942 q 737 724 737 841 q 648 545 737 614 q 579 508 618 522 l 578 502 q 768 275 768 452 q 648 62 768 144 q 390 -14 538 -14 q 76 60 195 -14 l 112 173 q 328 106 199 123 q 410 100 370 100 q 491 111 451 100 q 563 143 532 122 q 633 269 633 190 q 513 411 633 368 q 227 429 401 450 l 227 552 z "},"4":{"ha":948,"x_min":52,"x_max":888,"o":"m 52 343 l 572 960 l 698 960 l 698 345 l 888 345 l 888 231 l 698 231 l 698 0 l 572 0 l 572 231 l 89 231 l 52 343 m 572 345 l 572 808 l 191 345 l 572 345 z "},"5":{"ha":862,"x_min":77,"x_max":769,"o":"m 113 173 q 386 100 240 100 q 560 148 492 100 q 633 290 633 198 q 498 441 633 400 q 130 441 364 480 l 130 960 l 709 960 l 709 846 l 255 846 l 255 566 q 609 533 467 595 q 769 296 769 464 q 642 62 769 147 q 366 -14 528 -14 q 77 60 195 -14 l 113 173 z "},"6":{"ha":962,"x_min":94,"x_max":876,"o":"m 235 528 q 535 605 370 605 q 776 534 683 605 q 876 323 876 460 q 764 79 876 174 q 497 -14 654 -14 q 201 102 309 -14 q 94 408 94 216 q 357 929 94 806 q 596 974 463 979 q 826 921 715 969 l 793 813 q 437 840 584 897 q 235 528 272 774 m 227 391 q 302 180 227 260 q 509 99 380 99 q 674 153 609 99 q 743 303 743 211 q 678 442 743 391 q 523 491 616 491 q 283 435 395 491 q 227 402 250 419 l 227 391 z "},"7":{"ha":749,"x_min":41,"x_max":718,"o":"m 581 853 q 387 846 474 846 l 41 846 l 41 960 l 718 960 l 718 846 q 469 453 600 722 q 307 0 337 178 l 168 0 q 346 480 213 212 q 581 853 470 730 z "},"8":{"ha":903,"x_min":86,"x_max":817,"o":"m 193 56 q 168 73 193 56 q 115 144 144 91 q 86 253 86 197 q 100 346 86 309 q 137 412 114 382 q 258 500 186 475 l 258 505 q 157 578 199 522 q 114 704 114 636 q 143 820 114 771 q 220 903 172 869 q 456 974 318 974 q 688 909 595 974 q 786 720 786 838 q 697 544 786 612 q 628 508 667 522 l 628 505 q 804 355 764 467 q 817 274 817 318 q 802 190 817 229 q 761 118 787 151 q 700 62 735 86 q 623 20 664 37 q 456 -14 540 -14 q 307 4 372 -14 q 193 56 242 21 m 304 588 q 318 577 304 588 q 371 557 332 567 q 450 548 410 548 q 526 560 490 548 q 589 593 561 572 q 653 712 653 642 q 591 824 653 784 q 444 860 536 860 q 264 782 316 860 q 246 715 246 755 q 261 641 246 674 q 304 588 277 608 m 238 349 q 217 275 217 319 q 237 199 217 231 q 289 144 256 166 q 456 100 355 100 q 663 193 608 100 q 682 269 682 225 q 661 344 682 313 q 606 396 640 376 q 444 436 539 436 q 238 349 298 436 z "},"9":{"ha":962,"x_min":99,"x_max":882,"o":"m 740 432 q 440 355 606 355 q 199 426 292 355 q 99 637 99 501 q 212 882 99 786 q 478 974 321 974 q 774 859 666 974 q 882 553 882 745 q 618 31 882 155 q 379 -14 513 -18 q 149 39 260 -9 l 182 147 q 538 121 391 63 q 740 432 703 186 m 749 570 q 673 781 749 701 q 466 861 595 861 q 301 807 366 861 q 232 657 232 749 q 297 518 232 570 q 452 469 359 469 q 692 525 580 469 q 749 558 725 541 l 749 570 z "},"\u0001":{"ha":0,"x_min":0,"x_max":0,"o":""},"\u0002":{"ha":0,"x_min":0,"x_max":0,"o":""},"\u0003":{"ha":0,"x_min":0,"x_max":0,"o":""},"\u0004":{"ha":0,"x_min":0,"x_max":0,"o":""},"\u0005":{"ha":0,"x_min":0,"x_max":0,"o":""},"\u0006":{"ha":0,"x_min":0,"x_max":0,"o":""},"\u0007":{"ha":0,"x_min":0,"x_max":0,"o":""},"\b":{"ha":0,"x_min":0,"x_max":0,"o":""},"\t":{"ha":0,"x_min":0,"x_max":0,"o":""},"\u0010":{"ha":0,"x_min":0,"x_max":0,"o":""},"\u0011":{"ha":0,"x_min":0,"x_max":0,"o":""},"\u0012":{"ha":0,"x_min":0,"x_max":0,"o":""},"\u0013":{"ha":0,"x_min":0,"x_max":0,"o":""},"\u0014":{"ha":0,"x_min":0,"x_max":0,"o":""},"\u0015":{"ha":0,"x_min":0,"x_max":0,"o":""},"\u0016":{"ha":0,"x_min":0,"x_max":0,"o":""},"\u0017":{"ha":0,"x_min":0,"x_max":0,"o":""},"\u0018":{"ha":0,"x_min":0,"x_max":0,"o":""},"\u0019":{"ha":0,"x_min":0,"x_max":0,"o":""}," ":{"ha":396,"x_min":0,"x_max":0,"o":""},"!":{"ha":408,"x_min":120,"x_max":288,"o":"m 135 960 l 274 960 l 254 278 l 155 278 l 135 960 m 204 -9 q 185 -9 204 -9 q 143 14 166 -9 q 120 75 120 37 q 143 136 120 113 q 204 159 166 159 q 265 136 242 159 q 288 75 288 113 q 265 14 288 37 q 204 -9 242 -9 z "},"\"":{"ha":597,"x_min":112,"x_max":486,"o":"m 354 961 l 486 961 l 465 637 l 374 637 l 354 961 m 112 961 l 243 961 l 223 637 l 132 637 l 112 961 z "},"#":{"ha":1078,"x_min":116,"x_max":962,"o":"m 264 275 l 116 275 l 116 380 l 283 380 l 327 614 l 116 614 l 116 719 l 346 719 l 393 973 l 497 947 l 454 719 l 704 719 l 751 973 l 854 947 l 812 719 l 962 719 l 962 614 l 793 614 l 750 380 l 962 380 l 962 275 l 731 275 l 678 -13 l 574 14 l 623 275 l 372 275 l 319 -13 l 215 13 l 264 275 m 642 380 l 685 614 l 435 614 l 391 380 l 642 380 z "},"$":{"ha":873,"x_min":79,"x_max":787,"o":"m 143 275 q 383 172 254 192 l 383 447 q 199 503 251 472 q 123 570 148 533 q 99 662 99 607 q 123 759 99 716 q 187 831 147 801 q 383 903 267 892 l 383 998 l 487 998 l 487 903 q 739 818 627 889 l 692 708 q 487 786 597 765 l 487 544 q 682 486 629 515 q 761 417 734 456 q 787 320 787 379 q 696 138 787 209 q 487 59 614 75 l 487 -65 l 383 -65 l 383 56 q 144 125 258 64 q 79 167 108 144 l 143 275 m 383 790 q 245 722 280 778 q 233 675 233 701 q 245 631 233 648 q 277 602 256 614 q 383 564 313 579 l 383 790 m 487 172 q 639 254 600 186 q 653 307 653 278 q 640 355 653 336 q 605 387 627 373 q 487 426 567 409 l 487 172 z "},"%":{"ha":996,"x_min":47,"x_max":949,"o":"m 845 976 l 927 908 l 157 -12 l 75 56 l 845 976 m 250 581 q 106 635 163 581 q 47 775 47 691 q 106 917 47 859 q 251 974 164 974 q 395 918 337 974 q 454 778 454 863 q 395 636 454 693 q 250 581 336 581 m 251 663 q 277 663 251 663 q 331 693 302 663 q 361 775 361 724 q 296 883 361 855 q 250 892 275 892 q 169 860 199 892 q 140 790 140 829 q 148 731 140 752 q 170 694 155 710 q 251 663 201 663 m 542 181 q 601 323 542 265 q 746 380 659 380 q 890 324 832 380 q 949 184 949 269 q 890 42 949 99 q 745 -14 831 -14 q 601 41 658 -14 q 542 181 542 97 m 745 298 q 664 266 694 298 q 635 196 635 235 q 643 137 635 158 q 665 100 650 116 q 746 68 696 68 q 826 99 797 68 q 856 181 856 130 q 791 289 856 261 q 745 298 770 298 z "},"&":{"ha":1041,"x_min":93,"x_max":1015,"o":"m 745 114 q 437 -13 620 -13 q 196 56 290 -13 q 93 262 93 131 q 277 548 93 436 q 218 702 218 636 q 239 817 218 767 q 297 902 260 867 q 504 974 374 974 q 763 882 648 974 l 700 781 q 545 856 635 838 q 492 861 518 861 q 388 826 425 861 q 351 724 351 790 q 636 373 351 614 l 730 294 q 784 551 784 408 l 911 552 q 825 219 911 365 l 1015 76 l 931 -20 l 745 114 m 654 183 q 349 458 451 342 q 233 338 253 406 q 226 277 226 313 q 245 206 226 240 q 295 149 264 172 q 436 100 359 100 q 654 183 570 100 z "},"'":{"ha":355,"x_min":112,"x_max":243,"o":"m 112 960 l 243 960 l 223 637 l 132 637 l 112 960 z "},"(":{"ha":543,"x_min":93,"x_max":460,"o":"m 377 -208 q 93 429 93 41 q 386 1078 93 827 l 453 1007 q 232 606 273 819 q 218 441 218 532 q 236 267 218 351 q 287 111 254 183 q 460 -140 346 -20 l 377 -208 z "},")":{"ha":543,"x_min":83,"x_max":451,"o":"m 167 1078 q 451 441 451 829 q 158 -208 451 43 l 91 -137 q 312 265 271 51 q 326 429 326 338 q 308 603 326 519 q 257 759 290 687 q 83 1010 198 890 l 167 1078 z "},"*":{"ha":751,"x_min":127,"x_max":624,"o":"m 326 826 l 165 747 l 127 813 l 275 912 l 127 1011 l 165 1078 l 326 998 l 336 1177 l 414 1177 l 425 998 l 585 1078 l 624 1011 l 474 912 l 624 813 l 585 746 l 425 826 l 414 647 l 336 647 l 326 826 z "},"+":{"ha":906,"x_min":140,"x_max":766,"o":"m 140 416 l 390 416 l 390 678 l 515 678 l 515 416 l 766 416 l 766 302 l 515 302 l 515 41 l 390 41 l 390 302 l 140 302 l 140 416 z "},",":{"ha":357,"x_min":76,"x_max":276,"o":"m 143 22 q 108 83 108 45 q 160 153 108 135 q 193 159 175 159 q 226 152 210 159 q 252 134 241 145 q 276 80 276 109 q 269 25 276 51 q 250 -26 262 0 q 224 -77 239 -52 q 194 -123 210 -102 q 138 -189 160 -170 l 76 -155 q 134 -23 112 -105 q 143 22 142 2 z "},"-":{"ha":770,"x_min":140,"x_max":630,"o":"m 140 454 l 630 454 l 630 349 l 140 349 l 140 454 z "},".":{"ha":357,"x_min":107,"x_max":275,"o":"m 191 -9 q 172 -9 191 -9 q 130 14 153 -9 q 107 75 107 37 q 130 136 107 113 q 191 159 153 159 q 252 136 229 159 q 275 75 275 113 q 252 14 275 37 q 191 -9 229 -9 z "},"/":{"ha":676,"x_min":50,"x_max":627,"o":"m 508 1059 l 627 1059 l 168 -317 l 50 -317 l 508 1059 z "},":":{"ha":357,"x_min":107,"x_max":275,"o":"m 275 469 q 275 450 275 469 q 252 408 275 431 q 191 385 229 385 q 130 408 153 385 q 107 469 107 431 q 130 529 107 507 q 191 552 153 552 q 252 529 229 552 q 275 469 275 507 m 191 -9 q 172 -9 191 -9 q 130 14 153 -9 q 107 75 107 37 q 130 136 107 113 q 191 159 153 159 q 252 136 229 159 q 275 75 275 113 q 252 14 275 37 q 191 -9 229 -9 z "},";":{"ha":357,"x_min":76,"x_max":276,"o":"m 275 469 q 275 450 275 469 q 252 408 275 431 q 191 385 229 385 q 130 408 153 385 q 107 469 107 431 q 130 529 107 507 q 191 552 153 552 q 252 529 229 552 q 275 469 275 507 m 143 22 q 108 83 108 45 q 160 153 108 135 q 193 159 175 159 q 226 152 210 159 q 252 134 241 145 q 276 80 276 109 q 269 25 276 51 q 250 -26 262 0 q 224 -77 239 -52 q 194 -123 210 -102 q 138 -189 160 -170 l 76 -155 q 134 -23 112 -105 q 143 22 142 2 z "},"<":{"ha":894,"x_min":73,"x_max":701,"o":"m 73 504 l 625 928 l 701 828 l 212 453 l 701 130 l 629 24 l 73 387 l 73 504 z "},"=":{"ha":906,"x_min":140,"x_max":766,"o":"m 140 562 l 766 562 l 766 458 l 140 458 l 140 562 m 140 291 l 766 291 l 766 186 l 140 186 l 140 291 z "},">":{"ha":894,"x_min":183,"x_max":812,"o":"m 812 456 l 260 31 l 183 132 l 672 507 l 184 829 l 256 936 l 812 572 l 812 456 z "},"?":{"ha":702,"x_min":56,"x_max":650,"o":"m 56 910 q 356 974 198 974 q 624 876 551 974 q 650 792 650 840 q 634 709 650 744 q 593 645 618 674 q 534 590 567 616 l 471 540 q 362 437 387 475 q 331 278 313 362 l 221 256 q 291 513 195 405 q 388 605 337 564 q 464 669 439 645 q 517 767 517 721 q 344 861 517 861 q 141 826 263 861 q 85 807 108 817 l 56 910 m 299 -9 q 280 -9 299 -9 q 238 14 261 -9 q 215 75 215 37 q 238 136 215 113 q 299 159 261 159 q 360 136 337 159 q 383 75 383 113 q 360 14 383 37 q 299 -9 337 -9 z "},"@":{"ha":1310,"x_min":100,"x_max":1211,"o":"m 827 555 l 836 599 l 939 599 l 878 304 q 880 211 867 247 q 933 175 893 175 q 1005 203 972 175 q 1059 273 1037 231 q 1105 443 1105 357 q 1077 591 1105 529 q 1000 699 1049 654 q 741 790 899 790 q 479 716 607 790 q 283 530 357 646 q 205 300 205 411 q 240 119 205 189 q 337 4 275 49 q 664 -83 458 -83 l 637 -165 q 256 -62 397 -165 q 100 267 100 51 q 199 587 100 441 q 445 801 292 721 q 753 879 594 879 q 1076 770 947 879 q 1211 473 1211 658 q 1127 208 1211 328 q 992 96 1072 129 q 907 79 952 79 q 772 173 796 79 q 570 79 674 79 q 428 140 481 79 q 376 291 376 199 q 418 449 376 370 q 527 574 458 525 q 685 623 597 623 q 827 555 773 623 m 807 454 q 652 524 733 524 q 537 452 585 524 q 494 309 494 385 q 545 190 494 222 q 590 178 562 178 q 646 189 618 178 q 698 214 674 199 q 772 277 737 239 q 774 290 773 283 q 777 304 775 296 l 807 454 m 855 503 l 856 503 l 855 503 z "},"A":{"ha":970,"x_min":17,"x_max":953,"o":"m 466 960 l 537 960 l 953 0 l 816 0 l 725 210 l 244 210 l 146 0 l 17 0 l 466 960 m 676 324 l 589 526 q 557 604 573 564 l 530 681 q 500 783 505 755 l 492 783 q 467 705 486 755 q 433 617 467 705 q 399 540 417 579 l 298 324 l 676 324 z "},"B":{"ha":1031,"x_min":125,"x_max":945,"o":"m 125 960 l 478 960 q 741 918 650 960 q 857 729 857 863 q 815 616 857 671 q 730 551 778 566 q 885 466 827 532 q 945 299 945 397 q 718 26 945 90 q 500 0 625 0 l 125 0 l 125 960 m 490 587 q 702 656 644 587 q 724 724 724 682 q 698 790 724 765 q 633 827 673 814 q 458 846 574 846 l 250 846 l 250 587 l 490 587 m 812 291 q 513 473 812 473 l 250 473 l 250 114 l 517 114 q 787 201 722 114 q 812 291 812 236 z "},"C":{"ha":1012,"x_min":93,"x_max":973,"o":"m 901 761 q 612 861 789 861 q 339 755 451 861 q 226 490 226 649 q 342 212 226 326 q 624 99 458 99 q 863 160 744 99 q 924 199 899 178 l 973 105 q 716 -5 873 20 q 612 -14 665 -14 q 411 22 505 -14 q 246 122 317 58 q 134 275 175 186 q 93 454 93 363 q 112 610 93 544 q 165 732 130 676 q 248 833 199 788 q 355 909 296 878 q 624 974 478 974 q 964 861 821 974 l 901 761 z "},"D":{"ha":1085,"x_min":125,"x_max":1013,"o":"m 125 960 l 519 960 q 873 837 739 960 q 1013 496 1013 709 q 870 134 1013 270 q 500 0 730 0 l 125 0 l 125 960 m 517 114 q 783 216 686 114 q 880 488 880 316 q 773 751 880 653 q 499 846 669 846 l 250 846 l 250 114 l 517 114 z "},"E":{"ha":929,"x_min":125,"x_max":855,"o":"m 125 960 l 842 960 l 842 846 l 250 846 l 250 587 l 777 587 l 777 473 l 250 473 l 250 114 l 855 114 l 855 0 l 125 0 l 125 960 z "},"F":{"ha":846,"x_min":125,"x_max":774,"o":"m 125 960 l 774 960 l 774 846 l 250 846 l 250 438 l 723 438 l 723 324 l 250 324 l 250 0 l 125 0 l 125 960 z "},"G":{"ha":1156,"x_min":93,"x_max":1031,"o":"m 160 218 q 144 245 160 218 q 111 335 128 272 q 93 471 93 399 q 112 610 93 544 q 165 732 130 676 q 248 833 199 788 q 355 909 296 878 q 624 974 478 974 q 979 854 838 974 l 908 758 q 612 861 789 861 q 339 755 451 861 q 226 490 226 649 q 338 208 226 317 q 622 99 449 99 q 856 176 753 99 q 905 221 885 197 l 905 325 l 572 325 l 572 439 l 1031 439 l 1031 0 l 905 0 l 905 93 q 699 -4 828 23 q 588 -14 651 -14 q 460 2 525 -14 q 339 48 395 18 q 238 121 283 79 q 160 218 192 164 z "},"H":{"ha":1090,"x_min":125,"x_max":965,"o":"m 125 960 l 250 960 l 250 439 l 840 439 l 840 960 l 965 960 l 965 0 l 840 0 l 840 325 l 250 325 l 250 0 l 125 0 l 125 960 z "},"I":{"ha":375,"x_min":125,"x_max":250,"o":"m 125 960 l 250 960 l 250 0 l 125 0 l 125 960 z "},"J":{"ha":807,"x_min":61,"x_max":682,"o":"m 366 99 q 557 340 557 99 l 557 960 l 682 960 l 682 354 q 498 12 682 88 q 360 -14 436 -14 q 231 14 285 -14 q 140 87 177 41 q 61 321 61 182 l 183 338 q 229 174 183 240 q 366 99 280 99 z "},"K":{"ha":952,"x_min":125,"x_max":937,"o":"m 125 960 l 254 960 l 254 482 l 752 960 l 914 960 l 392 463 l 937 0 l 739 0 l 254 424 l 254 0 l 125 0 l 125 960 z "},"L":{"ha":819,"x_min":125,"x_max":774,"o":"m 125 960 l 250 960 l 250 114 l 774 114 l 774 0 l 125 0 l 125 960 z "},"M":{"ha":1320,"x_min":120,"x_max":1200,"o":"m 195 960 l 232 960 l 656 495 l 1079 960 l 1119 960 l 1200 0 l 1078 0 l 1016 722 l 657 325 l 644 325 l 296 716 l 241 0 l 120 0 l 195 960 z "},"N":{"ha":1090,"x_min":125,"x_max":965,"o":"m 125 960 l 235 960 l 853 202 l 853 960 l 965 960 l 965 0 l 860 0 l 237 764 l 237 0 l 125 0 l 125 960 z "},"O":{"ha":1236,"x_min":93,"x_max":1143,"o":"m 246 122 q 210 154 246 122 q 134 275 175 186 q 93 454 93 363 q 112 610 93 544 q 165 732 130 676 q 248 833 199 788 q 355 909 296 878 q 624 974 478 974 q 884 911 764 974 q 1072 742 1002 850 q 1143 490 1143 629 q 988 127 1143 271 q 754 3 891 37 q 595 -14 686 -14 q 411 22 505 -14 q 246 122 317 58 m 339 755 q 312 731 339 755 q 256 638 286 706 q 226 489 226 570 q 257 336 226 408 q 342 212 288 265 q 624 99 458 99 q 897 205 785 99 q 1010 470 1010 312 q 956 669 1010 577 q 812 808 905 755 q 627 861 722 861 q 461 833 532 861 q 339 755 391 805 z "},"P":{"ha":997,"x_min":125,"x_max":938,"o":"m 125 960 l 505 960 q 813 873 698 960 q 938 604 938 780 q 806 313 938 421 q 486 210 682 210 l 250 210 l 250 0 l 125 0 l 125 960 m 503 324 q 722 393 642 324 q 805 596 805 465 q 711 787 805 722 q 486 846 627 846 l 250 846 l 250 324 l 503 324 z "},"Q":{"ha":1236,"x_min":93,"x_max":1143,"o":"m 222 144 q 127 290 162 207 q 93 458 93 372 q 112 610 93 544 q 165 732 130 676 q 248 833 199 788 q 355 909 296 878 q 624 974 478 974 q 884 911 764 974 q 1072 742 1002 850 q 1143 490 1143 629 q 1024 164 1143 301 q 724 -3 908 32 l 962 -167 l 827 -223 l 541 -9 q 222 144 351 13 m 339 755 q 312 731 339 755 q 256 638 286 706 q 226 489 226 570 q 257 336 226 408 q 342 212 288 265 q 624 99 458 99 q 897 205 785 99 q 1010 470 1010 312 q 956 669 1010 577 q 812 808 905 755 q 627 861 722 861 q 461 833 532 861 q 339 755 391 805 z "},"R":{"ha":1051,"x_min":125,"x_max":965,"o":"m 965 665 q 768 370 965 451 l 951 0 l 805 0 l 640 334 q 500 324 573 324 l 250 324 l 250 0 l 125 0 l 125 960 l 519 960 q 837 902 732 960 q 965 665 965 831 m 517 438 q 742 480 669 438 q 832 656 832 532 q 623 840 832 818 q 499 846 563 846 l 250 846 l 250 438 l 517 438 z "},"S":{"ha":989,"x_min":92,"x_max":898,"o":"m 151 216 q 408 109 277 135 q 497 100 452 100 q 591 109 543 100 q 677 137 640 117 q 761 275 761 182 q 620 408 761 370 q 532 428 578 419 l 435 445 q 176 538 250 477 q 109 690 109 595 q 233 901 109 821 q 496 974 345 974 q 757 926 641 974 q 843 886 798 910 l 797 775 q 565 852 699 834 q 484 858 523 858 q 324 823 393 858 q 243 711 243 783 q 346 600 243 635 q 450 573 392 583 l 571 552 q 783 488 724 524 q 870 407 842 452 q 898 289 898 363 q 863 157 898 216 q 771 61 829 99 q 484 -14 659 -14 q 178 56 321 -14 q 92 109 132 79 l 151 216 z "},"T":{"ha":938,"x_min":45,"x_max":892,"o":"m 406 846 l 45 846 l 45 960 l 892 960 l 892 846 l 532 846 l 532 0 l 406 0 l 406 846 z "},"U":{"ha":1080,"x_min":104,"x_max":976,"o":"m 104 960 l 229 960 l 229 463 q 404 125 229 201 q 545 99 463 99 q 683 123 626 99 q 778 191 741 146 q 850 443 850 277 l 850 960 l 976 960 l 976 463 q 727 19 976 118 q 536 -14 644 -14 q 347 18 427 -14 q 213 109 267 50 q 104 443 104 228 l 104 960 z "},"V":{"ha":992,"x_min":17,"x_max":958,"o":"m 17 960 l 157 960 l 407 409 q 438 334 424 371 q 488 197 471 250 l 494 197 q 515 259 504 228 l 540 326 q 572 400 554 362 l 825 960 l 958 960 l 517 -14 l 458 -14 l 17 960 z "},"W":{"ha":1436,"x_min":32,"x_max":1404,"o":"m 32 960 l 178 960 q 401 404 389 435 q 438 300 429 328 q 455 252 438 300 l 461 252 q 480 317 470 284 q 503 389 480 317 q 532 471 516 429 l 707 960 l 746 960 l 927 481 l 1005 252 l 1011 252 l 1059 407 q 1086 484 1072 448 l 1259 960 l 1404 960 l 1026 -14 l 987 -14 l 781 530 q 764 580 772 552 l 727 692 l 723 692 l 705 633 q 689 581 698 608 l 476 -14 l 437 -14 l 32 960 z "},"X":{"ha":979,"x_min":29,"x_max":949,"o":"m 405 484 l 32 960 l 197 960 l 487 589 l 775 960 l 925 960 l 562 494 l 949 0 l 785 0 l 480 388 l 179 0 l 29 0 l 405 484 z "},"Y":{"ha":876,"x_min":25,"x_max":850,"o":"m 379 410 l 25 960 l 163 960 l 443 522 l 721 960 l 850 960 l 505 412 l 505 0 l 379 0 l 379 410 z "},"Z":{"ha":894,"x_min":73,"x_max":821,"o":"m 73 114 l 665 847 l 73 847 l 73 961 l 821 961 l 821 847 l 229 114 l 821 114 l 821 0 l 73 0 l 73 114 z "},"[":{"ha":497,"x_min":131,"x_max":414,"o":"m 131 1096 l 414 1096 l 414 982 l 244 982 l 244 -110 l 414 -110 l 414 -224 l 131 -224 l 131 1096 z "},"\\":{"ha":676,"x_min":50,"x_max":627,"o":"m 50 1059 l 174 1059 l 627 -317 l 503 -317 l 50 1059 z "},"]":{"ha":497,"x_min":121,"x_max":404,"o":"m 404 -224 l 121 -224 l 121 -110 l 291 -110 l 291 982 l 121 982 l 121 1097 l 404 1097 l 404 -224 z "},"^":{"ha":873,"x_min":44,"x_max":829,"o":"m 44 490 l 433 974 l 829 490 l 757 424 l 429 784 l 119 429 l 44 490 z "},"_":{"ha":838,"x_min":73,"x_max":766,"o":"m 766 0 l 766 -104 l 73 -104 l 73 0 l 766 0 z "},"`":{"ha":401,"x_min":41,"x_max":344,"o":"m 41 955 l 118 1034 l 344 840 l 282 779 l 41 955 z "},"a":{"ha":814,"x_min":76,"x_max":752,"o":"m 568 87 q 307 -14 444 -14 q 146 37 211 -14 q 76 178 76 91 q 316 419 76 359 q 549 446 413 444 q 441 576 545 557 q 377 583 407 583 q 324 581 347 583 q 277 573 301 578 q 186 548 223 563 l 150 644 q 379 692 245 692 q 655 558 589 692 q 677 448 677 512 l 677 232 q 688 140 677 163 q 752 83 706 96 l 733 0 q 568 87 606 -15 m 324 313 q 292 301 324 313 q 233 260 260 289 q 205 198 205 231 q 214 148 205 165 q 239 119 224 130 q 314 95 271 95 q 391 104 357 95 q 454 128 425 113 q 549 199 511 157 l 549 345 q 324 313 387 337 z "},"b":{"ha":861,"x_min":125,"x_max":796,"o":"m 254 623 q 473 692 345 692 q 709 595 619 692 q 796 353 796 502 q 669 85 796 191 q 373 -14 547 -14 q 221 -3 296 -14 q 125 14 146 8 l 125 1059 l 254 1059 l 254 623 m 254 118 q 375 95 305 95 q 496 112 444 95 q 585 161 547 129 q 667 345 667 230 q 614 512 667 446 q 465 583 557 583 q 293 530 365 583 q 254 490 269 513 l 254 118 z "},"c":{"ha":671,"x_min":64,"x_max":648,"o":"m 625 145 l 648 50 q 399 -14 564 -14 q 152 83 241 -14 q 64 338 64 176 q 163 590 64 488 q 412 692 262 692 q 630 630 546 692 l 585 529 q 399 586 509 586 q 248 514 306 586 q 193 346 193 446 q 251 168 193 238 q 417 95 311 95 q 625 145 523 95 z "},"d":{"ha":861,"x_min":64,"x_max":736,"o":"m 618 64 q 387 -14 522 -14 q 152 83 241 -14 q 64 326 64 176 q 192 593 64 488 q 488 692 313 692 q 607 682 556 692 l 607 1059 l 736 1059 l 736 0 l 637 0 l 618 64 m 607 567 q 476 583 536 583 q 365 566 416 583 q 275 517 313 549 q 193 334 193 448 q 246 166 193 233 q 396 95 302 95 q 571 148 502 95 q 607 187 593 165 l 607 567 z "},"e":{"ha":750,"x_min":64,"x_max":685,"o":"m 608 618 q 664 528 644 583 q 685 413 685 473 q 671 271 685 353 l 199 271 q 266 142 214 189 q 412 95 317 95 q 643 141 538 95 l 665 44 q 465 -9 595 3 q 372 -14 429 -14 q 251 9 314 -14 q 146 77 188 33 q 64 338 64 166 q 163 590 64 488 q 412 692 262 692 q 608 618 534 692 m 562 371 l 565 408 q 472 572 565 532 q 397 586 441 586 q 318 569 354 586 q 255 523 281 552 q 194 371 201 463 l 562 371 z "},"f":{"ha":526,"x_min":13,"x_max":595,"o":"m 564 919 q 439 952 500 952 q 346 933 377 952 q 298 882 315 914 q 268 712 268 825 l 268 678 l 530 678 l 530 574 l 268 574 l 268 0 l 138 0 l 138 574 l 13 574 l 13 678 l 138 678 l 138 704 q 303 1032 138 958 q 420 1058 360 1058 q 595 1021 518 1058 l 564 919 z "},"g":{"ha":833,"x_min":93,"x_max":822,"o":"m 252 280 q 219 208 219 241 q 242 160 219 174 q 304 137 266 146 q 392 122 342 128 q 492 110 441 117 q 592 93 543 103 q 680 64 641 82 q 764 -57 764 22 q 658 -256 764 -176 q 425 -330 557 -330 q 212 -281 300 -330 q 110 -121 110 -224 q 160 8 110 -56 q 191 42 175 27 q 93 163 93 80 q 182 349 93 270 q 151 455 151 397 q 175 556 151 512 q 239 629 199 600 q 436 692 321 692 q 629 629 550 692 q 769 688 674 672 q 822 692 797 692 l 817 587 q 692 555 736 578 q 715 458 715 510 q 691 363 715 407 q 627 290 667 320 q 437 229 545 229 q 252 280 329 229 m 284 518 q 271 461 271 494 q 284 404 271 429 q 321 362 298 379 q 437 330 366 330 q 583 401 543 330 q 595 458 595 425 q 582 515 595 490 q 546 557 569 541 q 429 591 500 591 q 284 518 323 591 m 286 18 q 239 -105 239 -34 q 306 -195 239 -163 q 416 -222 362 -222 q 506 -215 471 -222 q 570 -192 541 -208 q 635 -93 635 -157 q 519 -12 635 -33 q 396 4 469 -3 q 286 18 324 11 z "},"h":{"ha":907,"x_min":125,"x_max":796,"o":"m 254 619 q 487 692 354 692 q 796 352 796 692 l 796 0 l 668 0 l 667 344 q 627 518 667 461 q 478 583 581 583 q 293 529 368 583 q 254 490 269 512 l 254 0 l 125 0 l 125 1059 l 254 1059 l 254 619 z "},"i":{"ha":378,"x_min":105,"x_max":273,"o":"m 273 957 q 273 938 273 957 q 250 896 273 919 q 189 873 227 873 q 128 896 151 873 q 105 957 105 919 q 128 1018 105 995 q 189 1040 151 1040 q 250 1018 227 1040 q 273 957 273 995 m 125 678 l 254 678 l 254 0 l 125 0 l 125 678 z "},"j":{"ha":378,"x_min":37,"x_max":273,"o":"m 273 957 q 273 938 273 957 q 250 896 273 919 q 189 873 227 873 q 128 896 151 873 q 105 957 105 919 q 128 1018 105 995 q 189 1040 151 1040 q 250 1018 227 1040 q 273 957 273 995 m 125 678 l 254 678 l 254 -44 q 165 -283 254 -208 q 92 -329 135 -309 l 37 -241 q 104 -174 85 -212 q 125 -58 125 -134 l 125 678 z "},"k":{"ha":754,"x_min":125,"x_max":724,"o":"m 125 1059 l 254 1059 l 254 380 l 558 678 l 709 678 l 390 366 l 580 161 q 724 92 640 98 l 704 0 q 537 38 602 -14 q 498 75 517 54 l 254 340 l 254 0 l 125 0 l 125 1059 z "},"l":{"ha":377,"x_min":125,"x_max":328,"o":"m 125 1059 l 254 1059 l 254 232 q 263 140 254 163 q 328 83 282 96 l 309 0 q 159 56 204 -14 q 125 222 125 110 l 125 1059 z "},"m":{"ha":1290,"x_min":125,"x_max":1179,"o":"m 710 486 q 722 352 722 428 l 722 0 l 593 0 l 593 344 q 572 506 593 465 q 520 565 551 547 q 450 583 489 583 q 384 576 410 583 q 332 557 357 570 q 254 487 283 531 l 254 0 l 125 0 l 125 678 l 223 678 l 242 614 q 446 692 330 692 q 673 587 608 692 q 831 682 733 656 q 925 692 865 692 q 1037 669 984 692 q 1122 602 1090 646 q 1179 352 1179 522 l 1179 0 l 1050 0 l 1050 344 q 1029 506 1050 465 q 978 565 1008 547 q 907 583 947 583 q 841 576 868 583 q 789 556 814 569 q 710 486 739 530 z "},"n":{"ha":907,"x_min":125,"x_max":796,"o":"m 243 611 q 487 692 349 692 q 796 352 796 692 l 796 0 l 667 0 l 667 344 q 627 518 667 461 q 478 583 581 583 q 293 529 368 583 q 254 490 269 512 l 254 0 l 125 0 l 125 678 l 223 678 l 243 611 z "},"o":{"ha":875,"x_min":64,"x_max":810,"o":"m 64 333 q 95 476 64 410 q 178 590 125 542 q 444 692 288 692 q 705 595 600 692 q 810 342 810 496 q 697 87 810 191 q 431 -14 587 -14 q 170 83 273 -14 q 64 333 64 180 m 193 340 q 212 242 193 288 q 264 164 231 197 q 444 95 335 95 q 613 164 545 95 q 682 334 682 232 q 610 513 682 441 q 431 583 540 583 q 262 513 330 583 q 193 340 193 444 z "},"p":{"ha":861,"x_min":125,"x_max":796,"o":"m 408 -14 q 254 1 326 -14 l 254 -317 l 125 -317 l 125 678 l 223 678 l 242 613 q 473 692 338 692 q 709 600 620 692 q 796 359 796 508 q 685 89 796 193 q 408 -14 576 -14 m 254 117 q 414 95 349 95 q 524 113 478 95 q 602 164 570 131 q 667 351 667 232 q 614 515 667 452 q 465 583 558 583 q 289 530 357 583 q 254 490 267 513 l 254 117 z "},"q":{"ha":861,"x_min":64,"x_max":736,"o":"m 607 54 q 387 -14 515 -14 q 152 81 241 -14 q 64 325 64 176 q 176 591 64 490 q 453 691 286 691 q 736 639 621 691 l 736 -317 l 607 -317 l 607 54 m 607 547 q 463 583 540 583 q 339 566 386 583 q 260 517 292 549 q 193 333 193 451 q 246 165 193 233 q 396 94 302 94 q 568 147 496 94 q 607 188 592 165 l 607 547 z "},"r":{"ha":576,"x_min":125,"x_max":543,"o":"m 514 536 q 430 561 473 561 q 358 539 387 561 q 309 484 330 517 q 254 335 268 420 l 254 0 l 125 0 l 125 678 l 231 678 l 253 554 q 387 681 305 650 q 440 692 416 692 q 475 691 464 692 q 498 688 487 690 q 543 671 519 682 l 514 536 z "},"s":{"ha":670,"x_min":50,"x_max":612,"o":"m 98 166 q 281 94 178 111 q 342 89 313 89 q 395 94 370 89 q 441 112 420 100 q 484 188 484 138 q 420 260 484 231 q 355 285 392 273 l 281 309 q 149 370 185 342 q 95 429 113 399 q 78 505 78 460 q 99 586 78 550 q 157 645 121 621 q 320 692 227 692 q 589 619 487 692 l 538 525 q 325 589 434 589 q 217 545 248 589 q 207 508 207 530 q 224 469 207 486 q 270 440 241 453 q 335 416 298 428 l 410 393 q 541 332 505 361 q 612 197 612 275 q 526 37 612 94 q 332 -14 450 -14 q 109 35 208 -14 q 50 73 75 51 l 98 166 z "},"t":{"ha":471,"x_min":39,"x_max":435,"o":"m 112 574 l 39 574 l 39 658 l 206 783 l 241 783 l 241 678 l 435 678 l 435 574 l 241 574 l 241 300 q 270 142 241 184 q 384 92 299 101 l 364 0 q 123 161 161 -26 q 112 281 112 216 l 112 574 z "},"u":{"ha":878,"x_min":111,"x_max":753,"o":"m 635 66 q 409 -14 542 -14 q 176 73 246 -14 q 111 326 111 153 l 111 678 l 239 678 l 239 334 q 275 161 239 216 q 418 95 316 95 q 589 152 522 95 q 625 191 610 170 l 625 678 l 753 678 l 753 0 l 655 0 l 635 66 z "},"v":{"ha":717,"x_min":27,"x_max":690,"o":"m 27 678 l 161 678 q 322 262 310 296 q 342 204 322 262 q 360 149 352 176 l 368 149 q 405 262 368 149 q 424 313 414 290 l 566 678 l 690 678 l 425 0 l 292 0 l 27 678 z "},"w":{"ha":1094,"x_min":42,"x_max":1052,"o":"m 42 678 l 170 678 l 262 385 q 282 317 272 355 l 321 165 l 328 165 l 367 311 q 387 378 377 348 l 483 678 l 611 678 l 705 385 q 726 313 715 351 q 766 165 751 222 l 773 165 l 793 238 q 836 382 813 314 l 934 678 l 1052 678 l 828 0 l 710 0 l 543 498 l 384 0 l 266 0 l 42 678 z "},"x":{"ha":725,"x_min":31,"x_max":694,"o":"m 290 345 l 38 678 l 182 678 l 367 433 l 550 678 l 687 678 l 435 342 l 694 0 l 549 0 l 358 255 l 168 0 l 31 0 l 290 345 z "},"y":{"ha":717,"x_min":27,"x_max":690,"o":"m 54 -203 q 124 -216 88 -216 q 183 -201 161 -216 q 224 -161 205 -186 q 290 -31 256 -119 l 297 -14 l 27 678 l 161 678 l 303 310 q 324 250 315 280 q 341 194 324 250 q 356 138 349 165 l 363 138 q 378 187 363 138 q 420 304 396 241 l 566 678 l 690 678 l 422 0 q 209 -309 324 -248 q 130 -330 168 -330 q 73 -324 92 -330 q 32 -301 54 -318 l 54 -203 z "},"z":{"ha":647,"x_min":58,"x_max":594,"o":"m 58 100 l 438 578 l 72 578 l 72 678 l 582 678 l 582 578 l 202 100 l 594 100 l 594 0 l 58 0 l 58 100 z "},"{":{"ha":497,"x_min":59,"x_max":377,"o":"m 174 435 q 272 245 272 391 l 272 24 q 335 -118 272 -65 q 377 -148 354 -134 l 326 -224 q 172 -77 211 -180 q 159 4 159 -41 l 159 225 q 130 338 159 292 q 59 386 100 386 l 59 473 q 130 510 101 473 q 159 607 159 547 l 159 831 q 201 1002 159 934 q 319 1096 244 1070 l 366 1023 q 295 957 317 997 q 272 851 272 917 l 272 627 q 174 435 272 481 z "},"|":{"ha":375,"x_min":131,"x_max":244,"o":"m 131 1059 l 244 1059 l 244 -317 l 131 -317 l 131 1059 z "},"}":{"ha":497,"x_min":111,"x_max":429,"o":"m 314 437 q 216 627 216 481 l 216 848 q 153 990 216 937 q 111 1020 134 1006 l 161 1096 q 315 949 277 1052 q 329 868 329 913 l 329 647 q 358 534 329 581 q 429 486 388 486 l 429 399 q 358 362 387 399 q 329 265 329 326 l 329 41 q 286 -130 329 -62 q 168 -224 243 -198 l 122 -151 q 193 -85 170 -125 q 216 21 216 -45 l 216 245 q 314 437 216 391 z "},"~":{"ha":873,"x_min":106,"x_max":767,"o":"m 106 617 q 275 800 168 764 q 326 808 299 808 q 376 799 353 808 q 418 777 399 790 q 455 747 438 763 q 490 718 473 731 q 550 686 528 686 q 586 690 572 686 q 612 703 600 695 q 692 802 658 733 l 767 764 q 591 587 698 622 q 540 580 567 580 q 411 641 478 580 q 309 703 345 703 q 215 641 258 703 q 182 580 196 614 l 106 617 z "}," ":{"ha":396,"x_min":0,"x_max":0,"o":""},"¡":{"ha":408,"x_min":111,"x_max":279,"o":"m 264 -277 l 125 -277 l 145 404 l 243 404 l 264 -277 m 195 691 q 214 691 195 691 q 256 668 233 691 q 279 607 279 645 q 256 546 279 569 q 195 524 233 524 q 134 546 157 524 q 111 607 111 569 q 134 668 111 645 q 195 691 157 691 z "},"¢":{"ha":722,"x_min":64,"x_max":697,"o":"m 697 185 q 487 125 612 138 l 487 -65 l 383 -65 l 383 123 q 151 227 235 136 q 64 473 64 320 q 155 713 64 616 q 383 824 243 808 l 383 998 l 487 998 l 487 825 q 677 777 602 817 l 646 673 q 487 718 581 707 l 487 233 q 673 282 594 243 l 697 185 m 383 718 q 244 640 295 705 q 193 481 193 576 q 304 266 193 334 q 383 236 339 244 l 383 718 z "},"£":{"ha":819,"x_min":87,"x_max":740,"o":"m 213 98 q 390 114 311 114 l 740 114 l 740 0 l 98 0 l 87 113 q 238 342 238 195 q 233 400 238 369 l 96 400 l 96 505 l 212 505 q 195 659 195 591 q 214 786 195 727 q 269 886 233 844 q 484 975 345 975 q 648 936 572 975 q 686 912 671 924 l 642 820 q 477 870 566 870 q 322 677 322 870 q 343 505 322 614 l 586 505 l 586 400 l 362 400 q 364 354 364 380 q 357 292 364 327 q 332 224 349 258 q 213 98 295 153 z "},"¤":{"ha":813,"x_min":40,"x_max":773,"o":"m 401 168 q 247 212 314 168 l 115 63 l 40 138 l 186 267 q 135 426 135 335 q 191 587 135 517 l 40 722 l 115 796 l 251 643 q 411 692 322 692 q 566 648 497 692 l 699 796 l 773 722 l 626 591 q 677 432 677 523 q 623 272 677 341 l 773 138 l 699 63 l 562 216 q 401 168 490 168 m 410 264 q 472 277 444 264 q 519 311 500 290 q 562 426 562 357 q 517 547 562 499 q 401 596 472 596 q 293 547 336 596 q 251 432 251 500 q 295 312 251 359 q 410 264 340 264 z "},"¥":{"ha":876,"x_min":25,"x_max":850,"o":"m 125 291 l 379 291 l 379 390 l 125 390 l 125 494 l 324 494 l 25 960 l 163 960 l 443 522 l 721 960 l 850 960 l 556 494 l 751 494 l 751 390 l 505 390 l 505 291 l 751 291 l 751 186 l 505 186 l 505 0 l 379 0 l 379 186 l 125 186 l 125 291 z "},"¦":{"ha":375,"x_min":131,"x_max":244,"o":"m 131 1059 l 244 1059 l 244 503 l 131 503 l 131 1059 m 244 239 l 244 -317 l 131 -317 l 131 239 l 244 239 z "},"§":{"ha":755,"x_min":93,"x_max":663,"o":"m 578 310 q 619 211 619 267 q 598 115 619 155 q 543 47 578 75 q 372 -14 470 -14 q 133 79 245 -14 l 196 179 q 384 99 288 99 q 477 146 452 99 q 486 185 486 162 q 469 227 486 209 q 425 259 452 245 q 362 283 397 272 l 290 305 q 162 362 197 334 q 93 495 93 417 q 116 583 93 542 q 176 650 139 625 q 136 749 136 693 q 157 845 136 805 q 212 913 178 885 q 384 974 286 974 q 623 882 511 974 l 559 781 q 372 861 468 861 q 278 814 304 861 q 269 775 269 798 q 286 733 269 751 q 331 702 303 715 q 393 677 358 688 l 466 655 q 593 598 558 626 q 663 465 663 543 q 640 377 663 418 q 578 310 616 336 m 260 595 q 226 515 226 567 q 317 426 226 459 q 374 407 345 416 l 435 388 q 496 366 467 378 q 530 445 530 393 q 438 534 530 502 l 320 572 q 260 595 288 582 z "},"¨":{"ha":406,"x_min":-2,"x_max":408,"o":"m 336 829 q 284 849 305 829 q 264 901 264 870 q 284 952 264 931 q 336 972 305 972 q 387 952 366 972 q 408 901 408 931 q 387 849 408 870 q 336 829 366 829 m 70 829 q 19 849 39 829 q -2 901 -2 870 q 19 952 -2 931 q 70 972 39 972 q 121 952 100 972 q 142 901 142 931 q 121 849 142 870 q 70 829 100 829 z "},"©":{"ha":1074,"x_min":93,"x_max":981,"o":"m 93 397 q 128 568 93 489 q 224 703 163 646 q 543 822 353 822 q 852 707 726 822 q 946 578 911 653 q 981 411 981 503 q 946 241 981 319 q 850 106 911 162 q 532 -14 721 -14 q 222 101 349 -14 q 93 397 93 219 m 192 412 q 219 278 192 340 q 294 168 247 215 q 543 68 397 68 q 783 161 684 68 q 882 395 882 256 q 780 640 882 541 q 532 741 677 741 q 292 647 390 741 q 192 412 192 553 m 555 272 q 684 302 622 272 l 703 232 q 590 191 665 203 q 531 188 567 188 q 452 202 494 188 q 380 244 410 217 q 317 404 317 302 q 385 562 317 501 q 555 622 453 622 q 689 585 629 622 l 654 511 q 542 540 602 540 q 449 507 482 540 q 416 410 416 473 q 555 272 416 272 z "},"ª":{"ha":633,"x_min":51,"x_max":570,"o":"m 420 616 q 233 540 330 540 q 106 579 158 540 q 51 684 51 623 q 80 782 51 745 q 157 842 109 819 q 401 890 249 887 q 366 959 397 941 q 275 975 339 975 q 144 948 210 975 l 117 1027 q 287 1062 193 1062 q 496 964 445 1062 q 513 883 513 930 l 513 724 q 522 659 513 676 q 570 619 535 629 l 554 549 q 420 616 458 537 m 241 628 q 401 701 336 628 l 401 809 q 241 787 283 803 q 181 750 199 771 q 162 696 162 730 q 184 645 162 662 q 241 628 206 628 z "},"«":{"ha":817,"x_min":77,"x_max":766,"o":"m 413 360 l 701 640 l 766 578 l 562 350 l 763 134 l 700 66 l 413 319 l 413 360 m 77 360 l 365 640 l 430 578 l 226 350 l 427 134 l 363 66 l 77 319 l 77 360 z "},"¬":{"ha":905,"x_min":140,"x_max":765,"o":"m 140 490 l 765 490 l 764 102 l 639 102 l 639 376 l 140 376 l 140 490 z "},"­":{"ha":770,"x_min":140,"x_max":630,"o":"m 140 454 l 630 454 l 630 349 l 140 349 l 140 454 z "},"®":{"ha":881,"x_min":66,"x_max":815,"o":"m 438 485 q 293 510 360 485 q 175 582 226 536 q 66 829 66 681 q 176 1088 66 985 q 445 1189 285 1189 q 705 1092 599 1189 q 815 844 815 993 q 705 585 815 687 q 438 485 595 485 m 444 557 q 555 577 503 557 q 645 635 606 598 q 728 829 728 714 q 643 1034 728 949 q 436 1118 557 1118 q 236 1039 319 1118 q 153 844 153 960 q 239 640 153 724 q 444 557 324 557 m 471 759 q 434 758 452 758 l 353 758 l 353 659 l 284 659 l 284 1021 l 441 1021 q 609 955 569 1021 q 624 894 624 930 q 540 774 624 807 l 601 659 l 524 659 l 471 759 m 440 823 q 544 854 522 823 q 553 890 553 867 q 477 954 553 947 q 433 956 456 956 l 353 956 l 353 823 l 440 823 z "},"¯":{"ha":406,"x_min":-16,"x_max":421,"o":"m -16 949 l 421 949 l 421 854 l -16 854 l -16 949 z "},"°":{"ha":500,"x_min":47,"x_max":454,"o":"m 250 581 q 106 635 163 581 q 47 775 47 691 q 106 917 47 859 q 251 974 164 974 q 395 918 337 974 q 454 778 454 863 q 395 636 454 693 q 250 581 336 581 m 251 663 q 277 663 251 663 q 331 693 302 663 q 361 775 361 724 q 296 883 361 855 q 250 892 275 892 q 169 860 199 892 q 140 790 140 829 q 148 731 140 752 q 170 694 155 710 q 251 663 201 663 z "},"±":{"ha":906,"x_min":140,"x_max":766,"o":"m 390 540 l 140 540 l 140 654 l 390 654 l 390 916 l 515 916 l 515 654 l 766 654 l 766 540 l 515 540 l 515 278 l 390 278 l 390 540 m 140 155 l 766 155 l 766 41 l 140 41 l 140 155 z "},"²":{"ha":652,"x_min":113,"x_max":555,"o":"m 113 1157 q 316 1206 216 1206 q 528 1107 475 1206 q 547 1031 547 1072 q 536 959 547 990 q 506 899 525 928 q 399 789 472 850 l 281 690 l 555 690 l 555 587 l 129 587 l 129 687 l 275 811 q 378 911 352 877 q 428 1020 428 975 q 389 1088 428 1064 q 289 1109 355 1109 q 142 1067 222 1109 l 113 1157 z "},"³":{"ha":637,"x_min":85,"x_max":533,"o":"m 394 1042 q 297 1107 394 1107 q 141 1076 201 1107 l 111 1164 q 306 1206 197 1206 q 449 1166 391 1206 q 513 1048 513 1123 q 487 968 513 1004 q 412 913 462 931 l 412 909 q 502 855 471 895 q 533 764 533 816 q 512 678 533 713 q 456 621 490 644 q 285 575 388 575 q 85 622 161 575 l 115 720 q 297 675 195 675 q 404 719 378 675 q 413 762 413 734 q 396 809 413 789 q 350 838 380 829 q 182 842 295 855 l 182 948 l 216 947 q 243 946 229 946 l 266 946 q 383 1000 351 946 q 394 1042 394 1017 z "},"´":{"ha":406,"x_min":58,"x_max":363,"o":"m 58 838 l 284 1031 l 363 953 l 121 777 l 58 838 z "},"µ":{"ha":893,"x_min":111,"x_max":768,"o":"m 650 66 q 420 -14 551 -14 q 221 34 294 -14 q 240 -135 240 -43 l 240 -227 l 111 -227 l 111 678 l 239 678 l 239 334 q 279 159 239 215 q 429 95 323 95 q 604 153 531 95 q 640 191 625 170 l 640 678 l 768 678 l 768 0 l 670 0 l 650 66 z "},"¶":{"ha":831,"x_min":86,"x_max":720,"o":"m 385 477 q 174 537 256 477 q 86 719 86 602 q 182 901 86 833 q 399 960 266 960 l 720 960 l 720 -71 l 621 -71 l 621 871 l 487 871 l 487 -71 l 385 -71 l 385 477 z "},"·":{"ha":381,"x_min":85,"x_max":296,"o":"m 296 374 q 296 350 296 374 q 267 297 296 326 q 191 269 238 269 q 114 297 143 269 q 85 374 85 326 q 114 450 85 421 q 191 478 143 478 q 267 450 238 478 q 296 374 296 421 z "},"¸":{"ha":406,"x_min":98,"x_max":297,"o":"m 227 -10 q 217 -33 221 -22 q 209 -52 217 -33 q 204 -68 205 -62 q 272 -104 248 -79 q 297 -161 297 -130 q 283 -215 297 -192 q 248 -260 269 -239 q 149 -330 206 -302 l 99 -279 q 126 -258 99 -279 q 177 -189 177 -217 q 98 -142 177 -159 q 118 -80 106 -109 l 138 -34 q 154 -2 146 -16 l 227 -10 z "},"¹":{"ha":481,"x_min":41,"x_max":341,"o":"m 221 1080 l 77 998 l 41 1094 l 229 1195 l 341 1195 l 341 587 l 221 587 l 221 1080 z "},"º":{"ha":636,"x_min":47,"x_max":589,"o":"m 313 538 q 123 610 197 538 q 47 796 47 684 q 127 986 47 909 q 323 1062 208 1062 q 513 990 438 1062 q 589 802 589 916 q 509 614 589 690 q 313 538 428 538 m 321 631 q 386 644 357 631 q 434 679 414 656 q 477 796 477 726 q 431 920 477 871 q 313 970 386 970 q 202 920 245 970 q 159 802 159 872 q 205 680 159 728 q 321 631 250 631 z "},"»":{"ha":817,"x_min":65,"x_max":755,"o":"m 418 347 l 130 66 l 65 128 l 269 357 l 69 572 l 132 640 l 418 387 l 418 347 m 755 347 l 467 66 l 402 128 l 606 357 l 405 572 l 468 640 l 755 387 l 755 347 z "},"¼":{"ha":1269,"x_min":19,"x_max":1202,"o":"m 1116 1194 l 1198 1126 l 101 -181 l 19 -113 l 1116 1194 m 962 427 l 1082 427 l 1082 60 l 1202 60 l 1202 -43 l 1082 -43 l 1082 -180 l 962 -180 l 962 -43 l 664 -43 l 642 28 l 962 427 m 962 60 l 962 288 l 784 60 l 962 60 m 221 1080 l 77 998 l 41 1094 l 229 1195 l 341 1195 l 341 587 l 221 587 l 221 1080 z "},"½":{"ha":1310,"x_min":19,"x_max":1213,"o":"m 1116 1194 l 1198 1126 l 101 -181 l 19 -113 l 1116 1194 m 221 1080 l 77 998 l 41 1094 l 229 1195 l 341 1195 l 341 587 l 221 587 l 221 1080 m 770 389 q 973 439 873 439 q 1185 339 1132 439 q 1204 263 1204 304 q 1193 192 1204 222 q 1162 132 1182 161 q 1056 21 1129 82 l 939 -77 l 1213 -77 l 1213 -180 l 786 -180 l 786 -81 l 932 43 q 1036 144 1009 109 q 1085 252 1085 208 q 1046 320 1085 296 q 946 341 1013 341 q 800 300 879 341 l 770 389 z "},"¾":{"ha":1343,"x_min":85,"x_max":1276,"o":"m 1190 1194 l 1272 1126 l 176 -181 l 94 -113 l 1190 1194 m 1036 427 l 1156 427 l 1156 60 l 1276 60 l 1276 -43 l 1156 -43 l 1156 -180 l 1036 -180 l 1036 -43 l 739 -43 l 716 28 l 1036 427 m 1036 60 l 1036 288 l 859 60 l 1036 60 m 394 1042 q 297 1107 394 1107 q 141 1076 201 1107 l 111 1164 q 306 1206 197 1206 q 449 1166 391 1206 q 513 1048 513 1123 q 487 968 513 1004 q 412 913 462 931 l 412 909 q 502 855 471 895 q 533 764 533 816 q 512 678 533 713 q 456 621 490 644 q 285 575 388 575 q 85 622 161 575 l 115 720 q 297 675 195 675 q 404 719 378 675 q 413 762 413 734 q 396 809 413 789 q 350 838 380 829 q 182 842 295 855 l 182 948 l 216 947 q 243 946 229 946 l 266 946 q 383 1000 351 946 q 394 1042 394 1017 z "},"¿":{"ha":702,"x_min":46,"x_max":641,"o":"m 641 -227 q 340 -291 498 -291 q 73 -193 145 -291 q 46 -109 46 -157 q 62 -26 46 -61 q 104 38 78 9 q 162 93 130 67 l 226 143 q 334 246 309 208 q 366 405 384 321 l 475 427 q 406 170 502 278 q 308 78 359 119 q 233 14 257 38 q 179 -84 179 -38 q 353 -178 179 -178 q 555 -143 433 -178 q 611 -124 589 -134 l 641 -227 m 397 692 q 416 692 397 692 q 458 669 435 692 q 482 608 482 646 q 458 547 482 570 q 397 524 435 524 q 336 547 359 524 q 313 608 313 570 q 336 669 313 646 q 397 692 359 692 z "},"À":{"ha":970,"x_min":17,"x_max":953,"o":"m 466 960 l 537 960 l 953 0 l 816 0 l 725 210 l 244 210 l 146 0 l 17 0 l 466 960 m 676 324 l 589 526 q 557 604 573 564 l 530 681 q 500 783 505 755 l 492 783 q 467 705 486 755 q 433 617 467 705 q 399 540 417 579 l 298 324 l 676 324 m 241 1168 l 298 1263 l 627 1120 l 583 1046 l 241 1168 z "},"Á":{"ha":970,"x_min":17,"x_max":953,"o":"m 466 960 l 537 960 l 953 0 l 816 0 l 725 210 l 244 210 l 146 0 l 17 0 l 466 960 m 676 324 l 589 526 q 557 604 573 564 l 530 681 q 500 783 505 755 l 492 783 q 467 705 486 755 q 433 617 467 705 q 399 540 417 579 l 298 324 l 676 324 m 380 1116 l 709 1272 l 769 1179 l 429 1043 l 380 1116 z "},"Â":{"ha":970,"x_min":17,"x_max":953,"o":"m 466 960 l 537 960 l 953 0 l 816 0 l 725 210 l 244 210 l 146 0 l 17 0 l 466 960 m 676 324 l 589 526 q 557 604 573 564 l 530 681 q 500 783 505 755 l 492 783 q 467 705 486 755 q 433 617 467 705 q 399 540 417 579 l 298 324 l 676 324 m 233 1100 l 497 1279 l 767 1102 l 697 1042 l 493 1154 l 294 1041 l 233 1100 z "},"Ã":{"ha":970,"x_min":17,"x_max":953,"o":"m 466 960 l 537 960 l 953 0 l 816 0 l 725 210 l 244 210 l 146 0 l 17 0 l 466 960 m 676 324 l 589 526 q 557 604 573 564 l 530 681 q 500 783 505 755 l 492 783 q 467 705 486 755 q 433 617 467 705 q 399 540 417 579 l 298 324 l 676 324 m 606 1166 q 693 1226 655 1166 l 760 1184 q 628 1072 715 1094 q 582 1067 608 1067 q 529 1076 556 1067 q 477 1096 502 1085 l 430 1117 q 391 1126 409 1126 q 326 1097 359 1126 q 300 1067 311 1084 l 229 1115 q 334 1208 265 1175 q 406 1226 368 1226 q 470 1217 443 1226 q 523 1196 498 1207 l 569 1176 q 606 1166 590 1166 z "},"Ä":{"ha":970,"x_min":17,"x_max":953,"o":"m 466 960 l 537 960 l 953 0 l 816 0 l 725 210 l 244 210 l 146 0 l 17 0 l 466 960 m 676 324 l 589 526 q 557 604 573 564 l 530 681 q 500 783 505 755 l 492 783 q 467 705 486 755 q 433 617 467 705 q 399 540 417 579 l 298 324 l 676 324 m 663 1066 q 612 1087 633 1066 q 591 1138 591 1107 q 612 1189 591 1168 q 663 1210 633 1210 q 714 1189 694 1210 q 735 1138 735 1168 q 714 1087 735 1107 q 663 1066 694 1066 m 330 1066 q 278 1087 299 1066 q 258 1138 258 1107 q 278 1189 258 1168 q 330 1210 299 1210 q 381 1189 360 1210 q 401 1138 401 1168 q 381 1087 401 1107 q 330 1066 360 1066 z "},"Å":{"ha":970,"x_min":17,"x_max":953,"o":"m 466 960 l 537 960 l 953 0 l 816 0 l 725 210 l 244 210 l 146 0 l 17 0 l 466 960 m 676 324 l 589 526 q 557 604 573 564 l 530 681 q 500 783 505 755 l 492 783 q 467 705 486 755 q 433 617 467 705 q 399 540 417 579 l 298 324 l 676 324 m 613 1064 q 602 1055 613 1064 q 562 1036 591 1046 q 499 1027 532 1027 q 439 1035 467 1027 q 391 1061 411 1044 q 348 1160 348 1095 q 396 1264 348 1223 q 509 1302 442 1302 q 650 1225 615 1302 q 662 1167 662 1200 q 649 1108 662 1134 q 613 1064 635 1082 m 428 1164 q 428 1148 428 1164 q 451 1114 428 1131 q 507 1097 474 1097 q 561 1113 540 1097 q 582 1163 582 1130 q 558 1214 582 1196 q 502 1232 535 1232 q 449 1215 469 1232 q 428 1164 428 1197 z "},"Æ":{"ha":1436,"x_min":-44,"x_max":1362,"o":"m 646 960 l 1349 960 l 1349 846 l 771 846 l 771 587 l 1284 587 l 1284 473 l 771 473 l 771 114 l 1362 114 l 1362 0 l 646 0 l 646 188 l 225 188 l 92 0 l -44 0 l 646 960 m 646 302 l 646 779 l 306 302 l 646 302 z "},"Ç":{"ha":1012,"x_min":93,"x_max":973,"o":"m 901 761 q 612 861 789 861 q 339 755 451 861 q 226 490 226 649 q 342 212 226 326 q 624 99 458 99 q 863 160 744 99 q 924 199 899 178 l 973 105 q 716 -5 873 20 q 636 -14 665 -14 l 602 -14 q 593 -13 597 -14 l 582 -39 q 572 -68 574 -56 q 640 -104 615 -79 q 665 -161 665 -130 q 651 -215 665 -192 q 616 -260 637 -239 q 517 -330 574 -302 l 467 -279 l 494 -258 q 545 -189 545 -217 q 465 -142 545 -159 q 484 -83 472 -113 l 503 -38 q 519 -6 511 -20 q 216 152 335 23 q 93 470 93 285 q 248 833 93 689 q 481 957 345 923 q 637 974 550 974 q 810 944 724 974 q 964 861 897 914 l 901 761 z "},"È":{"ha":929,"x_min":125,"x_max":855,"o":"m 125 960 l 842 960 l 842 846 l 250 846 l 250 587 l 777 587 l 777 473 l 250 473 l 250 114 l 855 114 l 855 0 l 125 0 l 125 960 m 282 1168 l 339 1263 l 668 1120 l 623 1046 l 282 1168 z "},"É":{"ha":929,"x_min":125,"x_max":855,"o":"m 125 960 l 842 960 l 842 846 l 250 846 l 250 587 l 777 587 l 777 473 l 250 473 l 250 114 l 855 114 l 855 0 l 125 0 l 125 960 m 317 1116 l 646 1272 l 707 1179 l 366 1043 l 317 1116 z "},"Ê":{"ha":929,"x_min":125,"x_max":855,"o":"m 125 960 l 842 960 l 842 846 l 250 846 l 250 587 l 777 587 l 777 473 l 250 473 l 250 114 l 855 114 l 855 0 l 125 0 l 125 960 m 224 1100 l 489 1279 l 759 1102 l 689 1042 l 485 1154 l 286 1041 l 224 1100 z "},"Ë":{"ha":929,"x_min":125,"x_max":855,"o":"m 125 960 l 842 960 l 842 846 l 250 846 l 250 587 l 777 587 l 777 473 l 250 473 l 250 114 l 855 114 l 855 0 l 125 0 l 125 960 m 631 1066 q 580 1087 601 1066 q 559 1138 559 1107 q 580 1189 559 1168 q 631 1210 601 1210 q 683 1189 662 1210 q 703 1138 703 1168 q 683 1087 703 1107 q 631 1066 662 1066 m 298 1066 q 247 1087 267 1066 q 226 1138 226 1107 q 247 1189 226 1168 q 298 1210 267 1210 q 349 1189 328 1210 q 370 1138 370 1168 q 349 1087 370 1107 q 298 1066 328 1066 z "},"Ì":{"ha":375,"x_min":-42,"x_max":344,"o":"m 125 960 l 250 960 l 250 0 l 125 0 l 125 960 m -42 1168 l 15 1263 l 344 1120 l 299 1046 l -42 1168 z "},"Í":{"ha":375,"x_min":21,"x_max":410,"o":"m 125 960 l 250 960 l 250 0 l 125 0 l 125 960 m 21 1116 l 350 1272 l 410 1179 l 70 1043 l 21 1116 z "},"Î":{"ha":375,"x_min":-79,"x_max":456,"o":"m 125 960 l 250 960 l 250 0 l 125 0 l 125 960 m -79 1100 l 186 1279 l 456 1102 l 386 1042 l 182 1154 l -17 1041 l -79 1100 z "},"Ï":{"ha":375,"x_min":-50,"x_max":427,"o":"m 125 960 l 250 960 l 250 0 l 125 0 l 125 960 m 355 1066 q 304 1087 325 1066 q 283 1138 283 1107 q 304 1189 283 1168 q 355 1210 325 1210 q 407 1189 386 1210 q 427 1138 427 1168 q 407 1087 427 1107 q 355 1066 386 1066 m 22 1066 q -30 1087 -9 1066 q -50 1138 -50 1107 q -30 1189 -50 1168 q 22 1210 -9 1210 q 73 1189 52 1210 q 94 1138 94 1168 q 73 1087 94 1107 q 22 1066 52 1066 z "},"Ð":{"ha":1106,"x_min":18,"x_max":1081,"o":"m 193 479 l 18 479 l 18 583 l 193 583 l 193 960 l 587 960 q 943 837 808 960 q 1081 496 1081 709 q 939 134 1081 270 q 568 0 798 0 l 193 0 l 193 479 m 585 114 q 852 216 754 114 q 948 488 948 316 q 842 751 948 653 q 568 846 738 846 l 319 846 l 319 583 l 657 583 l 657 479 l 319 479 l 319 114 l 585 114 z "},"Ñ":{"ha":1090,"x_min":125,"x_max":965,"o":"m 125 960 l 235 960 l 853 202 l 853 960 l 965 960 l 965 0 l 860 0 l 237 764 l 237 0 l 125 0 l 125 960 m 649 1166 q 736 1226 699 1166 l 803 1184 q 671 1072 759 1094 q 625 1067 651 1067 q 572 1076 600 1067 q 520 1096 545 1085 l 473 1117 q 435 1126 452 1126 q 370 1097 403 1126 q 343 1067 355 1084 l 272 1115 q 377 1208 309 1175 q 449 1226 412 1226 q 514 1217 486 1226 q 566 1196 541 1207 l 612 1176 q 649 1166 633 1166 z "},"Ò":{"ha":1236,"x_min":93,"x_max":1143,"o":"m 246 122 q 210 154 246 122 q 134 275 175 186 q 93 454 93 363 q 112 610 93 544 q 165 732 130 676 q 248 833 199 788 q 355 909 296 878 q 624 974 478 974 q 884 911 764 974 q 1072 742 1002 850 q 1143 490 1143 629 q 988 127 1143 271 q 754 3 891 37 q 595 -14 686 -14 q 411 22 505 -14 q 246 122 317 58 m 339 755 q 312 731 339 755 q 256 638 286 706 q 226 489 226 570 q 257 336 226 408 q 342 212 288 265 q 624 99 458 99 q 897 205 785 99 q 1010 470 1010 312 q 956 669 1010 577 q 812 808 905 755 q 627 861 722 861 q 461 833 532 861 q 339 755 391 805 m 441 1168 l 498 1263 l 827 1120 l 783 1046 l 441 1168 z "},"Ó":{"ha":1236,"x_min":93,"x_max":1143,"o":"m 246 122 q 210 154 246 122 q 134 275 175 186 q 93 454 93 363 q 112 610 93 544 q 165 732 130 676 q 248 833 199 788 q 355 909 296 878 q 624 974 478 974 q 884 911 764 974 q 1072 742 1002 850 q 1143 490 1143 629 q 988 127 1143 271 q 754 3 891 37 q 595 -14 686 -14 q 411 22 505 -14 q 246 122 317 58 m 339 755 q 312 731 339 755 q 256 638 286 706 q 226 489 226 570 q 257 336 226 408 q 342 212 288 265 q 624 99 458 99 q 897 205 785 99 q 1010 470 1010 312 q 956 669 1010 577 q 812 808 905 755 q 627 861 722 861 q 461 833 532 861 q 339 755 391 805 m 437 1116 l 766 1272 l 826 1179 l 486 1043 l 437 1116 z "},"Ô":{"ha":1236,"x_min":93,"x_max":1143,"o":"m 246 122 q 210 154 246 122 q 134 275 175 186 q 93 454 93 363 q 112 610 93 544 q 165 732 130 676 q 248 833 199 788 q 355 909 296 878 q 624 974 478 974 q 884 911 764 974 q 1072 742 1002 850 q 1143 490 1143 629 q 988 127 1143 271 q 754 3 891 37 q 595 -14 686 -14 q 411 22 505 -14 q 246 122 317 58 m 339 755 q 312 731 339 755 q 256 638 286 706 q 226 489 226 570 q 257 336 226 408 q 342 212 288 265 q 624 99 458 99 q 897 205 785 99 q 1010 470 1010 312 q 956 669 1010 577 q 812 808 905 755 q 627 861 722 861 q 461 833 532 861 q 339 755 391 805 m 351 1100 l 615 1279 l 885 1102 l 815 1042 l 611 1154 l 412 1041 l 351 1100 z "},"Õ":{"ha":1236,"x_min":93,"x_max":1143,"o":"m 246 122 q 210 154 246 122 q 134 275 175 186 q 93 454 93 363 q 112 610 93 544 q 165 732 130 676 q 248 833 199 788 q 355 909 296 878 q 624 974 478 974 q 884 911 764 974 q 1072 742 1002 850 q 1143 490 1143 629 q 988 127 1143 271 q 754 3 891 37 q 595 -14 686 -14 q 411 22 505 -14 q 246 122 317 58 m 339 755 q 312 731 339 755 q 256 638 286 706 q 226 489 226 570 q 257 336 226 408 q 342 212 288 265 q 624 99 458 99 q 897 205 785 99 q 1010 470 1010 312 q 956 669 1010 577 q 812 808 905 755 q 627 861 722 861 q 461 833 532 861 q 339 755 391 805 m 722 1166 q 809 1226 771 1166 l 876 1184 q 744 1072 831 1094 q 698 1067 724 1067 q 645 1076 672 1067 q 593 1096 618 1085 l 546 1117 q 507 1126 525 1126 q 442 1097 475 1126 q 416 1067 427 1084 l 345 1115 q 450 1208 381 1175 q 522 1226 484 1226 q 586 1217 559 1226 q 639 1196 614 1207 l 685 1176 q 722 1166 706 1166 z "},"Ö":{"ha":1236,"x_min":93,"x_max":1143,"o":"m 246 122 q 210 154 246 122 q 134 275 175 186 q 93 454 93 363 q 112 610 93 544 q 165 732 130 676 q 248 833 199 788 q 355 909 296 878 q 624 974 478 974 q 884 911 764 974 q 1072 742 1002 850 q 1143 490 1143 629 q 988 127 1143 271 q 754 3 891 37 q 595 -14 686 -14 q 411 22 505 -14 q 246 122 317 58 m 339 755 q 312 731 339 755 q 256 638 286 706 q 226 489 226 570 q 257 336 226 408 q 342 212 288 265 q 624 99 458 99 q 897 205 785 99 q 1010 470 1010 312 q 956 669 1010 577 q 812 808 905 755 q 627 861 722 861 q 461 833 532 861 q 339 755 391 805 m 785 1066 q 733 1087 754 1066 q 713 1138 713 1107 q 733 1189 713 1168 q 785 1210 754 1210 q 836 1189 815 1210 q 857 1138 857 1168 q 836 1087 857 1107 q 785 1066 815 1066 m 451 1066 q 400 1087 420 1066 q 379 1138 379 1107 q 400 1189 379 1168 q 451 1210 420 1210 q 502 1189 481 1210 q 523 1138 523 1168 q 502 1087 523 1107 q 451 1066 481 1066 z "},"×":{"ha":906,"x_min":160,"x_max":745,"o":"m 368 355 l 160 564 l 249 652 l 457 444 l 665 652 l 745 572 l 537 363 l 745 155 l 657 66 l 448 275 l 240 66 l 160 146 l 368 355 z "},"Ø":{"ha":1236,"x_min":93,"x_max":1143,"o":"m 612 -14 q 360 44 474 -14 l 266 -84 l 175 -20 l 267 104 q 140 262 186 169 q 93 470 93 355 q 248 833 93 689 q 481 957 345 923 q 624 974 550 974 q 869 919 755 974 l 960 1042 l 1050 978 l 964 860 q 1143 490 1143 717 q 988 127 1143 271 q 754 3 891 37 q 612 -14 686 -14 m 794 818 q 620 861 709 861 q 461 833 532 861 q 339 755 391 805 q 226 490 226 649 q 345 210 226 324 l 794 818 m 435 145 q 613 99 523 99 q 774 127 704 99 q 897 205 844 155 q 1010 470 1010 312 q 977 629 1010 555 q 886 755 943 702 l 435 145 z "},"Ù":{"ha":1080,"x_min":104,"x_max":976,"o":"m 104 960 l 229 960 l 229 463 q 404 125 229 201 q 545 99 463 99 q 683 123 626 99 q 778 191 741 146 q 850 443 850 277 l 850 960 l 976 960 l 976 463 q 727 19 976 118 q 536 -14 644 -14 q 347 18 427 -14 q 213 109 267 50 q 104 443 104 228 l 104 960 m 271 1168 l 328 1263 l 657 1120 l 612 1046 l 271 1168 z "},"Ú":{"ha":1080,"x_min":104,"x_max":976,"o":"m 104 960 l 229 960 l 229 463 q 404 125 229 201 q 545 99 463 99 q 683 123 626 99 q 778 191 741 146 q 850 443 850 277 l 850 960 l 976 960 l 976 463 q 727 19 976 118 q 536 -14 644 -14 q 347 18 427 -14 q 213 109 267 50 q 104 443 104 228 l 104 960 m 433 1116 l 762 1272 l 823 1179 l 482 1043 l 433 1116 z "},"Û":{"ha":1080,"x_min":104,"x_max":976,"o":"m 104 960 l 229 960 l 229 463 q 404 125 229 201 q 545 99 463 99 q 683 123 626 99 q 778 191 741 146 q 850 443 850 277 l 850 960 l 976 960 l 976 463 q 727 19 976 118 q 536 -14 644 -14 q 347 18 427 -14 q 213 109 267 50 q 104 443 104 228 l 104 960 m 273 1100 l 537 1279 l 807 1102 l 737 1042 l 533 1154 l 334 1041 l 273 1100 z "},"Ü":{"ha":1080,"x_min":104,"x_max":976,"o":"m 104 960 l 229 960 l 229 463 q 404 125 229 201 q 545 99 463 99 q 683 123 626 99 q 778 191 741 146 q 850 443 850 277 l 850 960 l 976 960 l 976 463 q 727 19 976 118 q 536 -14 644 -14 q 347 18 427 -14 q 213 109 267 50 q 104 443 104 228 l 104 960 m 707 1066 q 655 1087 676 1066 q 635 1138 635 1107 q 655 1189 635 1168 q 707 1210 676 1210 q 758 1189 737 1210 q 779 1138 779 1168 q 758 1087 779 1107 q 707 1066 737 1066 m 373 1066 q 322 1087 342 1066 q 301 1138 301 1107 q 322 1189 301 1168 q 373 1210 342 1210 q 424 1189 404 1210 q 445 1138 445 1168 q 424 1087 445 1107 q 373 1066 404 1066 z "},"Ý":{"ha":876,"x_min":25,"x_max":850,"o":"m 379 410 l 25 960 l 163 960 l 443 522 l 721 960 l 850 960 l 505 412 l 505 0 l 379 0 l 379 410 m 256 1116 l 585 1272 l 646 1179 l 305 1043 l 256 1116 z "},"Þ":{"ha":977,"x_min":125,"x_max":904,"o":"m 125 960 l 250 960 l 250 828 l 471 828 q 870 656 776 828 q 904 505 904 595 q 768 244 904 336 q 452 163 646 163 l 250 163 l 250 0 l 125 0 l 125 960 m 469 277 q 747 394 679 277 q 771 497 771 436 q 673 666 771 610 q 452 714 589 714 l 250 714 l 250 277 l 469 277 z "},"ß":{"ha":822,"x_min":125,"x_max":755,"o":"m 551 919 q 425 952 487 952 q 333 933 363 952 q 285 882 302 914 q 254 712 254 825 l 254 678 l 741 678 l 741 578 l 506 287 q 680 203 612 267 q 755 42 755 134 q 623 -212 755 -108 q 347 -329 508 -302 l 308 -232 q 528 -143 454 -195 q 619 16 619 -79 q 545 148 619 104 q 362 186 481 186 l 362 287 l 597 578 l 254 578 l 254 0 l 125 0 l 125 704 q 290 1032 125 958 q 406 1058 347 1058 q 581 1021 505 1058 l 551 919 z "},"à":{"ha":814,"x_min":76,"x_max":752,"o":"m 568 87 q 307 -14 444 -14 q 146 37 211 -14 q 76 178 76 91 q 316 419 76 359 q 549 446 413 444 q 441 576 545 557 q 377 583 407 583 q 324 581 347 583 q 277 573 301 578 q 186 548 223 563 l 150 644 q 379 692 245 692 q 655 558 589 692 q 677 448 677 512 l 677 232 q 688 140 677 163 q 752 83 706 96 l 733 0 q 568 87 606 -15 m 324 313 q 292 301 324 313 q 233 260 260 289 q 205 198 205 231 q 214 148 205 165 q 239 119 224 130 q 314 95 271 95 q 391 104 357 95 q 454 128 425 113 q 549 199 511 157 l 549 345 q 324 313 387 337 m 190 955 l 267 1034 l 493 840 l 431 779 l 190 955 z "},"á":{"ha":814,"x_min":76,"x_max":752,"o":"m 568 87 q 307 -14 444 -14 q 146 37 211 -14 q 76 178 76 91 q 316 419 76 359 q 549 446 413 444 q 441 576 545 557 q 377 583 407 583 q 324 581 347 583 q 277 573 301 578 q 186 548 223 563 l 150 644 q 379 692 245 692 q 655 558 589 692 q 677 448 677 512 l 677 232 q 688 140 677 163 q 752 83 706 96 l 733 0 q 568 87 606 -15 m 324 313 q 292 301 324 313 q 233 260 260 289 q 205 198 205 231 q 214 148 205 165 q 239 119 224 130 q 314 95 271 95 q 391 104 357 95 q 454 128 425 113 q 549 199 511 157 l 549 345 q 324 313 387 337 m 306 838 l 532 1031 l 610 953 l 369 777 l 306 838 z "},"â":{"ha":814,"x_min":76,"x_max":752,"o":"m 568 87 q 307 -14 444 -14 q 146 37 211 -14 q 76 178 76 91 q 316 419 76 359 q 549 446 413 444 q 441 576 545 557 q 377 583 407 583 q 324 581 347 583 q 277 573 301 578 q 186 548 223 563 l 150 644 q 379 692 245 692 q 655 558 589 692 q 677 448 677 512 l 677 232 q 688 140 677 163 q 752 83 706 96 l 733 0 q 568 87 606 -15 m 324 313 q 292 301 324 313 q 233 260 260 289 q 205 198 205 231 q 214 148 205 165 q 239 119 224 130 q 314 95 271 95 q 391 104 357 95 q 454 128 425 113 q 549 199 511 157 l 549 345 q 324 313 387 337 m 199 836 l 409 1035 l 618 837 l 555 777 l 405 902 l 260 777 l 199 836 z "},"ã":{"ha":814,"x_min":76,"x_max":752,"o":"m 568 87 q 307 -14 444 -14 q 146 37 211 -14 q 76 178 76 91 q 316 419 76 359 q 549 446 413 444 q 441 576 545 557 q 377 583 407 583 q 324 581 347 583 q 277 573 301 578 q 186 548 223 563 l 150 644 q 379 692 245 692 q 655 558 589 692 q 677 448 677 512 l 677 232 q 688 140 677 163 q 752 83 706 96 l 733 0 q 568 87 606 -15 m 324 313 q 292 301 324 313 q 233 260 260 289 q 205 198 205 231 q 214 148 205 165 q 239 119 224 130 q 314 95 271 95 q 391 104 357 95 q 454 128 425 113 q 549 199 511 157 l 549 345 q 324 313 387 337 m 319 888 q 226 813 269 888 l 160 861 q 292 981 202 956 q 338 986 313 986 q 387 974 363 986 q 430 948 410 962 q 467 922 430 948 q 499 911 484 911 q 592 986 549 911 l 657 946 q 526 819 612 844 q 479 813 505 813 q 431 825 454 813 q 388 850 408 837 l 351 876 q 319 888 334 888 z "},"ä":{"ha":814,"x_min":76,"x_max":752,"o":"m 568 87 q 307 -14 444 -14 q 146 37 211 -14 q 76 178 76 91 q 316 419 76 359 q 549 446 413 444 q 441 576 545 557 q 377 583 407 583 q 324 581 347 583 q 277 573 301 578 q 186 548 223 563 l 150 644 q 379 692 245 692 q 655 558 589 692 q 677 448 677 512 l 677 232 q 688 140 677 163 q 752 83 706 96 l 733 0 q 568 87 606 -15 m 324 313 q 292 301 324 313 q 233 260 260 289 q 205 198 205 231 q 214 148 205 165 q 239 119 224 130 q 314 95 271 95 q 391 104 357 95 q 454 128 425 113 q 549 199 511 157 l 549 345 q 324 313 387 337 m 541 829 q 490 849 511 829 q 469 901 469 870 q 490 952 469 931 q 541 972 511 972 q 592 952 572 972 q 613 901 613 931 q 592 849 613 870 q 541 829 572 829 m 275 829 q 224 849 245 829 q 203 901 203 870 q 224 952 203 931 q 275 972 245 972 q 327 952 306 972 q 347 901 347 931 q 327 849 347 870 q 275 829 306 829 z "},"å":{"ha":814,"x_min":76,"x_max":752,"o":"m 568 87 q 307 -14 444 -14 q 146 37 211 -14 q 76 178 76 91 q 316 419 76 359 q 549 446 413 444 q 441 576 545 557 q 377 583 407 583 q 324 581 347 583 q 277 573 301 578 q 186 548 223 563 l 150 644 q 379 692 245 692 q 655 558 589 692 q 677 448 677 512 l 677 232 q 688 140 677 163 q 752 83 706 96 l 733 0 q 568 87 606 -15 m 324 313 q 292 301 324 313 q 233 260 260 289 q 205 198 205 231 q 214 148 205 165 q 239 119 224 130 q 314 95 271 95 q 391 104 357 95 q 454 128 425 113 q 549 199 511 157 l 549 345 q 324 313 387 337 m 515 815 q 504 806 515 815 q 464 786 493 796 q 402 775 435 775 q 343 784 370 775 q 296 811 315 793 q 254 913 254 848 q 302 1017 254 975 q 413 1059 349 1059 q 551 978 517 1059 q 563 920 563 952 q 550 861 563 887 q 515 815 536 835 m 333 916 q 333 900 333 916 q 355 863 333 883 q 410 844 377 844 q 464 863 444 844 q 484 916 484 882 q 462 969 484 949 q 406 990 439 990 q 353 970 373 990 q 333 916 333 949 z "},"æ":{"ha":1227,"x_min":68,"x_max":1162,"o":"m 594 115 q 290 -14 446 -14 q 137 37 200 -14 q 68 178 68 92 q 308 419 68 359 q 541 446 406 444 q 433 576 537 557 q 370 583 399 583 q 317 581 340 583 q 269 573 294 578 q 178 548 216 563 l 142 644 q 372 692 237 692 q 634 583 561 692 q 888 692 733 692 q 1084 618 1011 692 q 1162 401 1162 541 q 1147 271 1162 357 l 676 271 q 743 142 691 189 q 888 95 794 95 q 1120 141 1015 95 l 1141 44 q 943 -9 1072 3 q 876 -14 906 -14 q 594 115 675 -14 m 1038 371 l 1042 408 q 949 572 1042 532 q 874 586 918 586 q 794 569 831 586 q 732 523 758 552 q 671 371 677 463 l 1038 371 m 316 313 q 285 301 316 313 q 225 260 253 289 q 197 198 197 231 q 207 148 197 165 q 231 119 216 130 q 303 95 261 95 q 384 106 345 95 q 456 134 422 117 q 554 214 519 168 q 541 338 541 269 l 541 345 q 316 313 380 337 z "},"ç":{"ha":671,"x_min":64,"x_max":648,"o":"m 625 145 l 648 50 q 418 -13 570 -9 q 408 -39 410 -32 q 397 -68 400 -56 q 466 -104 441 -79 q 490 -161 490 -130 q 476 -215 490 -192 q 441 -260 463 -239 q 342 -330 399 -302 l 292 -279 l 320 -258 q 370 -189 370 -217 q 291 -142 370 -159 q 343 -10 307 -77 q 137 99 210 6 q 64 338 64 191 q 163 590 64 488 q 412 692 262 692 q 630 630 546 692 l 585 529 q 399 586 509 586 q 248 514 306 586 q 193 346 193 446 q 251 168 193 238 q 417 95 311 95 q 625 145 523 95 z "},"è":{"ha":750,"x_min":64,"x_max":685,"o":"m 608 618 q 664 528 644 583 q 685 413 685 473 q 671 271 685 353 l 199 271 q 266 142 214 189 q 412 95 317 95 q 643 141 538 95 l 665 44 q 465 -9 595 3 q 372 -14 429 -14 q 251 9 314 -14 q 146 77 188 33 q 64 338 64 166 q 163 590 64 488 q 412 692 262 692 q 608 618 534 692 m 562 371 l 565 408 q 472 572 565 532 q 397 586 441 586 q 318 569 354 586 q 255 523 281 552 q 194 371 201 463 l 562 371 m 192 955 l 269 1034 l 495 840 l 433 779 l 192 955 z "},"é":{"ha":750,"x_min":64,"x_max":685,"o":"m 608 618 q 664 528 644 583 q 685 413 685 473 q 671 271 685 353 l 199 271 q 266 142 214 189 q 412 95 317 95 q 643 141 538 95 l 665 44 q 465 -9 595 3 q 372 -14 429 -14 q 251 9 314 -14 q 146 77 188 33 q 64 338 64 166 q 163 590 64 488 q 412 692 262 692 q 608 618 534 692 m 562 371 l 565 408 q 472 572 565 532 q 397 586 441 586 q 318 569 354 586 q 255 523 281 552 q 194 371 201 463 l 562 371 m 286 838 l 511 1031 l 590 953 l 349 777 l 286 838 z "},"ê":{"ha":750,"x_min":64,"x_max":685,"o":"m 608 618 q 664 528 644 583 q 685 413 685 473 q 671 271 685 353 l 199 271 q 266 142 214 189 q 412 95 317 95 q 643 141 538 95 l 665 44 q 465 -9 595 3 q 372 -14 429 -14 q 251 9 314 -14 q 146 77 188 33 q 64 338 64 166 q 163 590 64 488 q 412 692 262 692 q 608 618 534 692 m 562 371 l 565 408 q 472 572 565 532 q 397 586 441 586 q 318 569 354 586 q 255 523 281 552 q 194 371 201 463 l 562 371 m 200 836 l 410 1035 l 619 837 l 556 777 l 406 902 l 262 777 l 200 836 z "},"ë":{"ha":750,"x_min":64,"x_max":685,"o":"m 608 618 q 664 528 644 583 q 685 413 685 473 q 671 271 685 353 l 199 271 q 266 142 214 189 q 412 95 317 95 q 643 141 538 95 l 665 44 q 465 -9 595 3 q 372 -14 429 -14 q 251 9 314 -14 q 146 77 188 33 q 64 338 64 166 q 163 590 64 488 q 412 692 262 692 q 608 618 534 692 m 562 371 l 565 408 q 472 572 565 532 q 397 586 441 586 q 318 569 354 586 q 255 523 281 552 q 194 371 201 463 l 562 371 m 508 829 q 457 849 477 829 q 436 901 436 870 q 457 952 436 931 q 508 972 477 972 q 559 952 538 972 q 580 901 580 931 q 559 849 580 870 q 508 829 538 829 m 242 829 q 191 849 212 829 q 170 901 170 870 q 191 952 170 931 q 242 972 212 972 q 293 952 273 972 q 314 901 314 931 q 293 849 314 870 q 242 829 273 829 z "},"ì":{"ha":378,"x_min":-50,"x_max":254,"o":"m 125 678 l 254 678 l 254 0 l 125 0 l 125 678 m -50 955 l 28 1034 l 254 840 l 192 779 l -50 955 z "},"í":{"ha":378,"x_min":115,"x_max":420,"o":"m 125 678 l 254 678 l 254 0 l 125 0 l 125 678 m 115 838 l 341 1031 l 420 953 l 178 777 l 115 838 z "},"î":{"ha":378,"x_min":-20,"x_max":399,"o":"m 125 678 l 254 678 l 254 0 l 125 0 l 125 678 m -20 836 l 191 1035 l 399 837 l 336 777 l 186 902 l 42 777 l -20 836 z "},"ï":{"ha":378,"x_min":-15,"x_max":395,"o":"m 125 678 l 254 678 l 254 0 l 125 0 l 125 678 m 323 829 q 272 849 292 829 q 251 901 251 870 q 272 952 251 931 q 323 972 292 972 q 374 952 353 972 q 395 901 395 931 q 374 849 395 870 q 323 829 353 829 m 57 829 q 6 849 26 829 q -15 901 -15 870 q 6 952 -15 931 q 57 972 26 972 q 108 952 87 972 q 129 901 129 931 q 108 849 129 870 q 57 829 87 829 z "},"ð":{"ha":875,"x_min":64,"x_max":807,"o":"m 280 1059 q 536 963 424 1032 l 667 1057 l 729 973 l 622 897 q 807 421 807 722 q 705 107 807 225 q 425 -14 601 -14 q 167 72 266 -14 q 64 313 64 161 q 174 562 64 464 q 437 658 280 658 q 658 589 566 658 q 518 822 619 734 l 372 717 l 310 801 l 426 884 q 236 947 345 926 l 280 1059 m 678 414 l 677 444 q 425 549 558 549 q 258 486 323 549 q 193 321 193 424 q 261 155 193 216 q 437 95 327 95 q 616 182 551 95 q 678 414 678 267 z "},"ñ":{"ha":907,"x_min":125,"x_max":796,"o":"m 243 611 q 487 692 349 692 q 796 352 796 692 l 796 0 l 667 0 l 667 344 q 627 518 667 461 q 478 583 581 583 q 293 529 368 583 q 254 490 269 512 l 254 0 l 125 0 l 125 678 l 223 678 l 243 611 m 362 888 q 269 813 312 888 l 203 861 q 336 981 245 956 q 381 986 356 986 q 430 974 407 986 q 473 948 454 962 q 510 922 473 948 q 543 911 527 911 q 635 986 592 911 l 701 946 q 569 819 656 844 q 523 813 549 813 q 474 825 497 813 q 431 850 451 837 l 394 876 q 362 888 377 888 z "},"ò":{"ha":875,"x_min":64,"x_max":810,"o":"m 64 333 q 95 476 64 410 q 178 590 125 542 q 444 692 288 692 q 705 595 600 692 q 810 342 810 496 q 697 87 810 191 q 431 -14 587 -14 q 170 83 273 -14 q 64 333 64 180 m 193 340 q 212 242 193 288 q 264 164 231 197 q 444 95 335 95 q 613 164 545 95 q 682 334 682 232 q 610 513 682 441 q 431 583 540 583 q 262 513 330 583 q 193 340 193 444 m 245 955 l 322 1034 l 548 840 l 486 779 l 245 955 z "},"ó":{"ha":875,"x_min":64,"x_max":810,"o":"m 64 333 q 95 476 64 410 q 178 590 125 542 q 444 692 288 692 q 705 595 600 692 q 810 342 810 496 q 697 87 810 191 q 431 -14 587 -14 q 170 83 273 -14 q 64 333 64 180 m 193 340 q 212 242 193 288 q 264 164 231 197 q 444 95 335 95 q 613 164 545 95 q 682 334 682 232 q 610 513 682 441 q 431 583 540 583 q 262 513 330 583 q 193 340 193 444 m 334 838 l 559 1031 l 638 953 l 397 777 l 334 838 z "},"ô":{"ha":875,"x_min":64,"x_max":810,"o":"m 64 333 q 95 476 64 410 q 178 590 125 542 q 444 692 288 692 q 705 595 600 692 q 810 342 810 496 q 697 87 810 191 q 431 -14 587 -14 q 170 83 273 -14 q 64 333 64 180 m 193 340 q 212 242 193 288 q 264 164 231 197 q 444 95 335 95 q 613 164 545 95 q 682 334 682 232 q 610 513 682 441 q 431 583 540 583 q 262 513 330 583 q 193 340 193 444 m 228 836 l 438 1035 l 647 837 l 584 777 l 434 902 l 290 777 l 228 836 z "},"õ":{"ha":875,"x_min":64,"x_max":810,"o":"m 64 333 q 95 476 64 410 q 178 590 125 542 q 444 692 288 692 q 705 595 600 692 q 810 342 810 496 q 697 87 810 191 q 431 -14 587 -14 q 170 83 273 -14 q 64 333 64 180 m 193 340 q 212 242 193 288 q 264 164 231 197 q 444 95 335 95 q 613 164 545 95 q 682 334 682 232 q 610 513 682 441 q 431 583 540 583 q 262 513 330 583 q 193 340 193 444 m 347 888 q 254 813 297 888 l 189 861 q 321 981 231 956 q 367 986 341 986 q 415 974 392 986 q 458 948 439 962 q 495 922 458 948 q 528 911 512 911 q 621 986 577 911 l 686 946 q 554 819 641 844 q 508 813 534 813 q 459 825 482 813 q 416 850 436 837 l 379 876 q 347 888 362 888 z "},"ö":{"ha":875,"x_min":64,"x_max":810,"o":"m 64 333 q 95 476 64 410 q 178 590 125 542 q 444 692 288 692 q 705 595 600 692 q 810 342 810 496 q 697 87 810 191 q 431 -14 587 -14 q 170 83 273 -14 q 64 333 64 180 m 193 340 q 212 242 193 288 q 264 164 231 197 q 444 95 335 95 q 613 164 545 95 q 682 334 682 232 q 610 513 682 441 q 431 583 540 583 q 262 513 330 583 q 193 340 193 444 m 570 829 q 519 849 540 829 q 498 901 498 870 q 519 952 498 931 q 570 972 540 972 q 622 952 601 972 q 642 901 642 931 q 622 849 642 870 q 570 829 601 829 m 304 829 q 253 849 274 829 q 233 901 233 870 q 253 952 233 931 q 304 972 274 972 q 356 952 335 972 q 376 901 376 931 q 356 849 376 870 q 304 829 335 829 z "},"÷":{"ha":906,"x_min":140,"x_max":766,"o":"m 537 603 q 537 584 537 603 q 514 542 537 565 q 453 519 491 519 q 392 542 415 519 q 369 603 369 565 q 392 664 369 641 q 453 686 415 686 q 514 664 491 686 q 537 603 537 641 m 140 416 l 766 416 l 766 302 l 140 302 l 140 416 m 453 32 q 434 32 453 32 q 392 55 415 32 q 369 116 369 78 q 392 177 369 154 q 453 199 415 199 q 514 177 491 199 q 537 116 537 154 q 514 55 537 78 q 453 32 491 32 z "},"ø":{"ha":875,"x_min":64,"x_max":810,"o":"m 424 -14 q 262 21 340 -14 l 181 -90 l 100 -31 l 178 75 q 64 334 64 174 q 178 590 64 486 q 444 692 288 692 q 606 659 529 692 l 678 758 l 760 699 l 692 606 q 810 342 810 505 q 697 87 810 191 q 424 -14 587 -14 m 535 563 q 432 583 484 583 q 337 565 380 583 q 262 513 294 546 q 193 342 193 444 q 252 177 193 244 l 535 563 m 333 117 q 439 95 385 95 q 538 113 494 95 q 613 164 581 132 q 682 334 682 232 q 617 505 682 436 l 333 117 z "},"ù":{"ha":878,"x_min":111,"x_max":753,"o":"m 635 66 q 409 -14 542 -14 q 176 73 246 -14 q 111 326 111 153 l 111 678 l 239 678 l 239 334 q 275 161 239 216 q 418 95 316 95 q 589 152 522 95 q 625 191 610 170 l 625 678 l 753 678 l 753 0 l 655 0 l 635 66 m 219 955 l 296 1034 l 522 840 l 460 779 l 219 955 z "},"ú":{"ha":878,"x_min":111,"x_max":753,"o":"m 635 66 q 409 -14 542 -14 q 176 73 246 -14 q 111 326 111 153 l 111 678 l 239 678 l 239 334 q 275 161 239 216 q 418 95 316 95 q 589 152 522 95 q 625 191 610 170 l 625 678 l 753 678 l 753 0 l 655 0 l 635 66 m 347 838 l 573 1031 l 652 953 l 410 777 l 347 838 z "},"û":{"ha":878,"x_min":111,"x_max":753,"o":"m 635 66 q 409 -14 542 -14 q 176 73 246 -14 q 111 326 111 153 l 111 678 l 239 678 l 239 334 q 275 161 239 216 q 418 95 316 95 q 589 152 522 95 q 625 191 610 170 l 625 678 l 753 678 l 753 0 l 655 0 l 635 66 m 229 836 l 439 1035 l 648 837 l 585 777 l 435 902 l 291 777 l 229 836 z "},"ü":{"ha":878,"x_min":111,"x_max":753,"o":"m 635 66 q 409 -14 542 -14 q 176 73 246 -14 q 111 326 111 153 l 111 678 l 239 678 l 239 334 q 275 161 239 216 q 418 95 316 95 q 589 152 522 95 q 625 191 610 170 l 625 678 l 753 678 l 753 0 l 655 0 l 635 66 m 572 829 q 520 849 541 829 q 500 901 500 870 q 520 952 500 931 q 572 972 541 972 q 623 952 602 972 q 644 901 644 931 q 623 849 644 870 q 572 829 602 829 m 306 829 q 255 849 275 829 q 234 901 234 870 q 255 952 234 931 q 306 972 275 972 q 357 952 336 972 q 378 901 378 931 q 357 849 378 870 q 306 829 336 829 z "},"ý":{"ha":717,"x_min":27,"x_max":690,"o":"m 54 -203 q 124 -216 88 -216 q 183 -201 161 -216 q 224 -161 205 -186 q 290 -31 256 -119 l 297 -14 l 27 678 l 161 678 l 303 310 q 324 250 315 280 q 341 194 324 250 q 356 138 349 165 l 363 138 q 378 187 363 138 q 420 304 396 241 l 566 678 l 690 678 l 422 0 q 209 -309 324 -248 q 130 -330 168 -330 q 73 -324 92 -330 q 32 -301 54 -318 l 54 -203 m 278 838 l 504 1031 l 583 953 l 341 777 l 278 838 z "},"þ":{"ha":861,"x_min":125,"x_max":796,"o":"m 408 -14 q 254 1 326 -14 l 254 -317 l 125 -317 l 125 1059 l 254 1059 l 254 622 q 473 692 348 692 q 709 600 620 692 q 796 359 796 508 q 685 89 796 193 q 408 -14 576 -14 m 254 117 q 414 95 349 95 q 524 113 478 95 q 602 164 570 131 q 667 351 667 232 q 614 515 667 452 q 465 583 558 583 q 289 530 357 583 q 254 490 267 513 l 254 117 z "},"ÿ":{"ha":717,"x_min":27,"x_max":690,"o":"m 54 -203 q 124 -216 88 -216 q 183 -201 161 -216 q 224 -161 205 -186 q 290 -31 256 -119 l 297 -14 l 27 678 l 161 678 l 303 310 q 324 250 315 280 q 341 194 324 250 q 356 138 349 165 l 363 138 q 378 187 363 138 q 420 304 396 241 l 566 678 l 690 678 l 422 0 q 209 -309 324 -248 q 130 -330 168 -330 q 73 -324 92 -330 q 32 -301 54 -318 l 54 -203 m 491 829 q 440 849 460 829 q 419 901 419 870 q 440 952 419 931 q 491 972 460 972 q 542 952 522 972 q 563 901 563 931 q 542 849 563 870 q 491 829 522 829 m 225 829 q 174 849 195 829 q 153 901 153 870 q 174 952 153 931 q 225 972 195 972 q 276 952 256 972 q 297 901 297 931 q 276 849 297 870 q 225 829 256 829 z "},"ħ":{"ha":907,"x_min":3,"x_max":796,"o":"m 254 619 q 487 692 354 692 q 796 352 796 692 l 796 0 l 668 0 l 667 344 q 627 518 667 461 q 478 583 581 583 q 293 529 368 583 q 254 490 269 512 l 254 0 l 125 0 l 125 817 l 3 817 l 3 922 l 125 922 l 125 1059 l 254 1059 l 254 922 l 444 922 l 444 817 l 254 817 l 254 619 z "},"Ĩ":{"ha":375,"x_min":-85,"x_max":446,"o":"m 125 960 l 250 960 l 250 0 l 125 0 l 125 960 m 292 1166 q 380 1226 342 1166 l 446 1184 q 315 1072 402 1094 q 269 1067 294 1067 q 216 1076 243 1067 q 163 1096 189 1085 l 117 1117 q 78 1126 96 1126 q 13 1097 46 1126 q -14 1067 -2 1084 l -85 1115 q 20 1208 -48 1175 q 92 1226 55 1226 q 157 1217 130 1226 q 210 1196 184 1207 l 256 1176 q 292 1166 277 1166 z "},"ĩ":{"ha":378,"x_min":-60,"x_max":437,"o":"m 125 678 l 254 678 l 254 0 l 125 0 l 125 678 m 99 888 q 6 813 49 888 l -60 861 q 73 981 -18 956 q 118 986 93 986 q 167 974 144 986 q 210 948 191 962 q 247 922 210 948 q 279 911 264 911 q 372 986 329 911 l 437 946 q 306 819 393 844 q 260 813 286 813 q 211 825 234 813 q 168 850 188 837 l 131 876 q 99 888 114 888 z "},"ı":{"ha":378,"x_min":125,"x_max":254,"o":"m 125 678 l 254 678 l 254 0 l 125 0 l 125 678 z "},"Ĳ":{"ha":968,"x_min":125,"x_max":844,"o":"m 526 203 q 563 126 539 154 q 633 99 587 99 q 699 134 680 99 q 718 240 718 170 l 718 960 l 844 960 l 844 260 q 784 54 844 121 q 614 -14 724 -14 q 491 37 541 -14 q 429 172 442 85 l 526 203 m 125 960 l 250 960 l 250 0 l 125 0 l 125 960 z "},"ĳ":{"ha":747,"x_min":105,"x_max":642,"o":"m 273 957 q 273 938 273 957 q 250 896 273 919 q 189 873 227 873 q 128 896 151 873 q 105 957 105 919 q 128 1018 105 995 q 189 1040 151 1040 q 250 1018 227 1040 q 273 957 273 995 m 125 678 l 254 678 l 254 0 l 125 0 l 125 678 m 642 957 q 642 938 642 957 q 619 896 642 919 q 558 873 596 873 q 497 896 520 873 q 474 957 474 919 q 497 1018 474 995 q 558 1040 520 1040 q 619 1018 596 1040 q 642 957 642 995 m 494 678 l 623 678 l 623 -44 q 534 -283 623 -208 q 460 -329 504 -309 l 406 -241 q 473 -174 454 -212 q 494 -58 494 -134 l 494 678 z "},"Ĵ":{"ha":807,"x_min":61,"x_max":886,"o":"m 366 99 q 557 340 557 99 l 557 960 l 682 960 l 682 354 q 498 12 682 88 q 360 -14 436 -14 q 231 14 285 -14 q 140 87 177 41 q 61 321 61 182 l 183 338 q 229 174 183 240 q 366 99 280 99 m 351 1100 l 616 1279 l 886 1102 l 816 1042 l 612 1154 l 413 1041 l 351 1100 z "},"ĵ":{"ha":378,"x_min":-20,"x_max":399,"o":"m 125 678 l 254 678 l 254 -44 q 165 -283 254 -208 q 92 -329 135 -309 l 37 -241 q 104 -174 85 -212 q 125 -58 125 -134 l 125 678 m -20 836 l 191 1035 l 399 837 l 336 777 l 186 902 l 42 777 l -20 836 z "},"ķ":{"ha":754,"x_min":125,"x_max":724,"o":"m 125 1059 l 254 1059 l 254 380 l 558 678 l 709 678 l 390 366 l 580 161 q 724 92 640 98 l 704 0 q 537 38 602 -14 q 498 75 517 54 l 254 340 l 254 0 l 125 0 l 125 1059 m 281 -302 q 328 -80 349 -176 l 437 -67 q 385 -279 460 -168 q 346 -330 365 -309 l 281 -302 z "},"ĸ":{"ha":754,"x_min":125,"x_max":724,"o":"m 125 678 l 254 678 l 254 380 l 558 678 l 709 678 l 390 366 l 580 161 q 724 92 640 98 l 704 0 q 537 38 602 -14 q 498 75 517 54 l 254 340 l 254 0 l 125 0 l 125 678 z "},"ŀ":{"ha":612,"x_min":125,"x_max":526,"o":"m 125 1059 l 254 1059 l 254 232 q 263 140 254 163 q 328 83 282 96 l 309 0 q 159 56 204 -14 q 125 222 125 110 l 125 1059 m 526 483 q 526 461 526 483 q 500 414 526 440 q 431 388 474 388 q 363 414 389 388 q 337 483 337 440 q 363 551 337 526 q 431 577 389 577 q 500 551 474 577 q 526 483 526 526 z "},"Ł":{"ha":901,"x_min":16,"x_max":855,"o":"m 206 342 l 58 275 l 16 371 l 206 456 l 206 960 l 332 960 l 332 512 l 649 654 l 691 558 l 332 397 l 332 114 l 855 114 l 855 0 l 206 0 l 206 342 z "},"ł":{"ha":485,"x_min":41,"x_max":464,"o":"m 172 414 l 84 374 l 41 470 l 172 528 l 172 1059 l 301 1059 l 301 585 l 421 639 l 464 543 l 301 471 l 301 232 q 311 140 301 163 q 376 83 330 96 l 357 0 q 207 56 252 -14 q 172 222 172 110 l 172 414 z "},"Ń":{"ha":1090,"x_min":125,"x_max":965,"o":"m 125 960 l 235 960 l 853 202 l 853 960 l 965 960 l 965 0 l 860 0 l 237 764 l 237 0 l 125 0 l 125 960 m 363 1116 l 692 1272 l 753 1179 l 412 1043 l 363 1116 z "},"ń":{"ha":907,"x_min":125,"x_max":796,"o":"m 243 611 q 487 692 349 692 q 796 352 796 692 l 796 0 l 667 0 l 667 344 q 627 518 667 461 q 478 583 581 583 q 293 529 368 583 q 254 490 269 512 l 254 0 l 125 0 l 125 678 l 223 678 l 243 611 m 353 838 l 578 1031 l 657 953 l 416 777 l 353 838 z "},"Œ":{"ha":1527,"x_min":93,"x_max":1453,"o":"m 246 122 q 210 154 246 122 q 134 275 175 186 q 93 454 93 363 q 112 610 93 544 q 165 732 130 676 q 248 833 199 788 q 355 909 296 878 q 624 974 478 974 q 749 960 687 974 l 1440 960 l 1440 846 l 862 846 l 862 587 l 1375 587 l 1375 473 l 862 473 l 862 114 l 1453 114 l 1453 0 l 739 0 q 591 -14 677 -14 q 411 22 505 -14 q 246 122 317 58 m 339 755 q 312 731 339 755 q 256 638 286 706 q 226 489 226 570 q 257 336 226 408 q 342 212 288 265 q 624 99 458 99 q 736 114 684 99 l 736 842 q 604 861 676 861 q 461 833 532 861 q 339 755 391 805 z "},"œ":{"ha":1368,"x_min":64,"x_max":1303,"o":"m 1017 -14 q 731 122 810 -14 q 519 -4 651 25 q 415 -14 476 -14 q 286 12 353 -14 q 170 83 219 37 q 64 334 64 180 q 178 590 64 486 q 444 692 288 692 q 689 608 587 692 q 746 547 722 581 q 866 653 793 614 q 1014 692 939 692 q 1139 673 1088 692 q 1225 618 1189 655 q 1303 401 1303 541 q 1289 271 1303 353 l 817 271 q 884 142 832 189 q 1029 95 935 95 q 1261 141 1156 95 l 1282 44 q 1084 -9 1213 3 q 1017 -14 1047 -14 m 1180 371 l 1183 408 q 1090 572 1183 532 q 1015 586 1059 586 q 936 569 972 586 q 873 523 899 552 q 812 371 819 463 l 1180 371 m 193 340 q 212 242 193 288 q 264 164 231 197 q 444 95 335 95 q 613 164 545 95 q 682 334 682 232 q 610 513 682 441 q 431 583 540 583 q 262 513 330 583 q 193 340 193 444 z "},"Ŕ":{"ha":1051,"x_min":125,"x_max":965,"o":"m 965 665 q 768 370 965 451 l 951 0 l 805 0 l 640 334 q 500 324 573 324 l 250 324 l 250 0 l 125 0 l 125 960 l 519 960 q 837 902 732 960 q 965 665 965 831 m 517 438 q 742 480 669 438 q 832 656 832 532 q 623 840 832 818 q 499 846 563 846 l 250 846 l 250 438 l 517 438 m 345 1116 l 673 1272 l 734 1179 l 393 1043 l 345 1116 z "},"Ŗ":{"ha":1051,"x_min":125,"x_max":965,"o":"m 965 665 q 768 370 965 451 l 951 0 l 805 0 l 640 334 q 500 324 573 324 l 250 324 l 250 0 l 125 0 l 125 960 l 519 960 q 837 902 732 960 q 965 665 965 831 m 517 438 q 742 480 669 438 q 832 656 832 532 q 623 840 832 818 q 499 846 563 846 l 250 846 l 250 438 l 517 438 m 359 -302 q 406 -80 428 -176 l 516 -67 q 463 -279 539 -168 q 425 -330 444 -309 l 359 -302 z "},"ŗ":{"ha":576,"x_min":99,"x_max":543,"o":"m 514 536 q 430 561 473 561 q 358 539 387 561 q 309 484 330 517 q 254 335 268 420 l 254 0 l 125 0 l 125 678 l 231 678 l 253 554 q 387 681 305 650 q 440 692 416 692 q 475 691 464 692 q 498 688 487 690 q 543 671 519 682 l 514 536 m 99 -302 q 146 -80 168 -176 l 256 -67 q 203 -279 279 -168 q 164 -330 183 -309 l 99 -302 z "},"Ř":{"ha":1051,"x_min":125,"x_max":965,"o":"m 965 665 q 768 370 965 451 l 951 0 l 805 0 l 640 334 q 500 324 573 324 l 250 324 l 250 0 l 125 0 l 125 960 l 519 960 q 837 902 732 960 q 965 665 965 831 m 517 438 q 742 480 669 438 q 832 656 832 532 q 623 840 832 818 q 499 846 563 846 l 250 846 l 250 438 l 517 438 m 180 1218 l 250 1278 l 454 1167 l 652 1279 l 714 1220 l 450 1041 l 180 1218 z "},"ř":{"ha":576,"x_min":79,"x_max":543,"o":"m 514 536 q 430 561 473 561 q 358 539 387 561 q 309 484 330 517 q 254 335 268 420 l 254 0 l 125 0 l 125 678 l 231 678 l 253 554 q 387 681 305 650 q 440 692 416 692 q 475 691 464 692 q 498 688 487 690 q 543 671 519 682 l 514 536 m 79 975 l 142 1035 l 292 909 l 436 1035 l 498 976 l 288 777 l 79 975 z "},"ȷ":{"ha":378,"x_min":37,"x_max":254,"o":"m 125 678 l 254 678 l 254 -44 q 165 -283 254 -208 q 92 -329 135 -309 l 37 -241 q 104 -174 85 -212 q 125 -58 125 -134 l 125 678 z "},"ˆ":{"ha":406,"x_min":-7,"x_max":412,"o":"m -7 836 l 203 1035 l 412 837 l 349 777 l 199 902 l 54 777 l -7 836 z "},"ˇ":{"ha":406,"x_min":-7,"x_max":412,"o":"m -7 975 l 56 1035 l 205 909 l 350 1035 l 412 976 l 201 777 l -7 975 z "},"˚":{"ha":636,"x_min":164,"x_max":473,"o":"m 425 815 q 414 806 425 815 q 374 786 403 796 q 312 775 345 775 q 253 784 280 775 q 205 811 225 793 q 164 913 164 848 q 212 1017 164 975 q 323 1059 258 1059 q 461 978 427 1059 q 473 920 473 952 q 459 861 473 887 q 425 815 446 835 m 243 916 q 243 900 243 916 q 265 863 243 883 q 320 844 287 844 q 374 863 353 844 q 394 916 394 882 q 372 969 394 949 q 316 990 349 990 q 263 970 283 990 q 243 916 243 949 z "},"˜":{"ha":406,"x_min":-45,"x_max":452,"o":"m 113 888 q 20 813 63 888 l -45 861 q 87 981 -3 956 q 133 986 107 986 q 181 974 158 986 q 224 948 205 962 q 261 922 224 948 q 294 911 278 911 q 387 986 343 911 l 452 946 q 320 819 407 844 q 274 813 300 813 q 225 825 248 813 q 182 850 202 837 l 145 876 q 113 888 128 888 z "},"–":{"ha":1055,"x_min":181,"x_max":874,"o":"m 181 454 l 874 454 l 874 349 l 181 349 l 181 454 z "},"—":{"ha":1109,"x_min":73,"x_max":1037,"o":"m 73 454 l 1037 454 l 1037 349 l 73 349 l 73 454 z "},"‘":{"ha":357,"x_min":81,"x_max":281,"o":"m 214 848 q 250 787 250 825 q 198 716 250 734 q 165 711 182 711 q 132 718 147 711 q 104 736 116 724 q 81 789 81 760 q 89 844 81 819 q 107 895 96 869 q 133 946 119 921 q 163 993 148 971 q 220 1059 197 1039 l 281 1024 q 222 892 248 980 q 214 848 216 867 z "},"’":{"ha":357,"x_min":76,"x_max":276,"o":"m 143 922 q 108 983 108 945 q 160 1053 108 1035 q 193 1059 175 1059 q 226 1052 210 1059 q 252 1034 241 1045 q 276 980 276 1009 q 269 925 276 950 q 250 874 262 900 q 224 823 239 848 q 194 777 210 798 q 138 711 160 730 l 76 745 q 134 876 112 795 q 143 922 142 902 z "},"‚":{"ha":357,"x_min":76,"x_max":276,"o":"m 143 22 q 108 83 108 45 q 160 153 108 135 q 193 159 175 159 q 226 152 210 159 q 252 134 241 145 q 276 80 276 109 q 269 25 276 51 q 250 -26 262 0 q 224 -77 239 -52 q 194 -123 210 -102 q 138 -189 160 -170 l 76 -155 q 134 -23 112 -105 q 143 22 142 2 z "},"“":{"ha":597,"x_min":81,"x_max":522,"o":"m 454 763 q 490 702 490 740 q 438 631 490 650 q 405 626 422 626 q 372 633 387 626 q 345 651 356 640 q 321 705 321 675 q 329 760 321 734 q 347 810 336 785 q 373 861 359 836 q 404 907 388 886 q 460 974 437 954 l 522 939 q 463 808 487 895 q 454 763 456 783 m 214 763 q 250 702 250 740 q 198 631 250 650 q 165 626 182 626 q 132 633 147 626 q 104 651 116 640 q 81 705 81 675 q 89 760 81 734 q 107 810 96 785 q 133 861 119 836 q 163 907 148 886 q 220 974 197 954 l 281 939 q 222 808 248 895 q 214 763 216 783 z "},"”":{"ha":597,"x_min":76,"x_max":516,"o":"m 383 837 q 348 898 348 860 q 400 968 348 950 q 433 974 415 974 q 466 967 450 974 q 492 949 481 960 q 516 895 516 924 q 509 840 516 865 q 490 789 502 815 q 464 739 479 764 q 434 692 450 714 q 378 626 401 646 l 316 661 q 374 792 352 710 q 383 837 382 817 m 143 837 q 108 898 108 860 q 160 968 108 950 q 193 974 175 974 q 226 967 210 974 q 252 949 241 960 q 276 895 276 924 q 269 840 276 865 q 250 789 262 815 q 224 739 239 764 q 194 692 210 714 q 138 626 161 646 l 76 661 q 134 792 112 710 q 143 837 142 817 z "},"„":{"ha":597,"x_min":76,"x_max":516,"o":"m 383 22 q 348 83 348 45 q 400 153 348 135 q 433 159 415 159 q 466 152 450 159 q 492 134 481 145 q 516 80 516 109 q 509 25 516 51 q 490 -26 502 0 q 464 -77 479 -52 q 434 -123 450 -102 q 378 -189 400 -170 l 316 -155 q 374 -23 352 -105 q 383 22 382 2 m 143 22 q 108 83 108 45 q 160 153 108 135 q 193 159 175 159 q 226 152 210 159 q 252 134 241 145 q 276 80 276 109 q 269 25 276 51 q 250 -26 262 0 q 224 -77 239 -52 q 194 -123 210 -102 q 138 -189 160 -170 l 76 -155 q 134 -23 112 -105 q 143 22 142 2 z "},"•":{"ha":422,"x_min":73,"x_max":349,"o":"m 311 287 q 302 278 311 287 q 268 259 293 269 q 211 249 242 249 q 155 259 180 249 q 111 288 129 269 q 73 387 73 324 q 111 487 73 449 q 212 525 149 525 q 339 444 307 525 q 349 387 349 418 q 339 331 349 356 q 311 287 329 305 z "},"‹":{"ha":476,"x_min":73,"x_max":431,"o":"m 73 360 l 361 640 l 431 574 l 229 351 l 427 138 l 359 66 l 73 319 l 73 360 z "},"›":{"ha":476,"x_min":60,"x_max":418,"o":"m 418 347 l 130 66 l 60 133 l 262 355 l 64 568 l 132 640 l 418 387 l 418 347 z "},"€":{"ha":1151,"x_min":44,"x_max":1038,"o":"m 327 539 q 324 479 324 515 q 332 406 324 443 l 859 406 l 846 301 l 365 301 q 583 114 433 157 q 680 99 632 99 q 771 107 728 99 q 853 128 813 115 q 989 199 938 157 l 1038 105 q 781 -5 938 20 q 661 -14 730 -14 q 519 9 593 -14 q 387 72 446 31 q 218 301 266 156 l 44 301 l 58 406 l 195 406 q 191 475 191 445 q 195 539 191 505 l 71 539 l 85 644 l 217 644 q 389 884 264 795 q 688 974 514 974 q 1029 861 886 974 l 966 761 q 676 861 853 861 q 401 732 499 861 q 351 644 370 692 l 886 644 l 873 539 l 327 539 z "}}}
